<svg width="181" height="298" viewBox="0 0 181 298" fill="none" xmlns="http://www.w3.org/2000/svg">
<path d="M126.104 7.8419C134.835 22.8435 131.879 43.6733 113.742 57.7373C97.2405 70.5337 72.4879 68.6585 63.2919 58.0673C53.5408 46.8161 57.2912 31.2369 67.3723 26.2264C77.0859 21.3959 87.2119 23.9761 93.5801 18.1705C96.6255 15.3877 98.7332 8.73449 103.054 4.42153C107.877 -0.378993 120.486 -1.78164 126.104 7.8419Z" fill="#1D1B1C"/>
<path d="M74.9945 66.1606C81.7853 68.3157 89.0126 68.708 95.9968 67.3008C103.007 65.8646 109.593 62.8335 115.244 58.4423C120.992 54.147 125.479 48.3853 128.235 41.7605C130.859 35.1153 131.636 27.8843 130.486 20.8332C131.306 27.858 130.32 34.976 127.62 41.513C126.241 44.7417 124.432 47.7693 122.242 50.5139C120.041 53.2428 117.509 55.6869 114.704 57.7897C111.926 59.9286 108.932 61.7713 105.77 63.2878C99.4045 66.3034 92.4257 67.8003 85.3831 67.6608C81.87 67.6117 78.378 67.1075 74.9945 66.1606Z" fill="#1D1B1C"/>
<path d="M64.4559 27.0214C66.1841 25.6837 68.1132 24.628 70.1715 23.8936C72.2109 23.1486 74.3306 22.6451 76.4872 22.3934C78.6625 22.1384 80.8377 21.8309 83.0054 21.4408C85.2033 21.0525 87.3482 20.4081 89.3961 19.5206C90.4292 19.079 91.4186 18.5416 92.3514 17.9155C93.2675 17.2513 94.0922 16.4695 94.8042 15.5902C96.1547 13.846 97.3995 12.0225 98.5321 10.1296C99.6608 8.27384 101.022 6.56986 102.583 5.05906C104.164 3.55649 106.007 2.35653 108.021 1.51868C105.917 2.21521 103.968 3.31309 102.283 4.75153C100.634 6.23316 99.1824 7.91952 97.9621 9.76957C96.6944 11.5698 95.5918 13.4675 94.2117 15.1102C93.5356 15.93 92.7537 16.6564 91.8864 17.2704C90.9901 17.8577 90.0409 18.3599 89.0511 18.7705C85.1057 20.5257 80.7027 21.0208 76.3972 21.7109C74.2116 22.0416 72.0736 22.6334 70.029 23.4736C67.9831 24.3306 66.0983 25.5305 64.4559 27.0214Z" fill="#1D1B1C"/>
<path d="M3.1658 165.321C1.17058 161.391 34.2342 118.561 63.1723 82.85C63.1756 82.8443 63.1773 82.8378 63.1773 82.8312C63.1773 82.8246 63.1756 82.8182 63.1723 82.8125C76.2387 66.7007 87.5199 50.1689 96.0559 40.9354C101.479 35.0623 106.444 33.6371 107.9 33.6371C112.715 33.6371 125.452 36.885 123.389 62.8153C121.829 82.4224 117.823 103.095 122.421 124.742C127.019 146.389 138.886 166.274 150.962 175.05C163.038 183.826 180.898 184.614 179.022 184.456C178.445 184.403 176.022 187.644 169.961 189.887C162.461 192.632 150.849 193.374 145.479 195.955C134.483 201.205 125.564 213.289 108.965 214.707C91.4804 216.207 72.6308 204.423 55.469 197.8C34.6542 189.737 20.3427 199.218 3.1658 165.321Z" fill="#9719CD"/>
<g opacity="0.1">
<path d="M3.1658 165.321C1.17058 161.391 34.2342 118.561 63.1723 82.85C63.1756 82.8443 63.1773 82.8378 63.1773 82.8312C63.1773 82.8246 63.1756 82.8182 63.1723 82.8125C76.2387 66.7007 87.5199 50.1689 96.0559 40.9354C101.479 35.0623 106.444 33.6371 107.9 33.6371C112.715 33.6371 125.452 36.885 123.389 62.8153C121.829 82.4224 117.823 103.095 122.421 124.742C127.019 146.389 138.886 166.274 150.962 175.05C163.038 183.826 180.898 184.614 179.022 184.456C178.445 184.403 176.022 187.644 169.961 189.887C162.461 192.632 150.849 193.374 145.479 195.955C134.483 201.205 125.564 213.289 108.965 214.707C91.4804 216.207 72.6308 204.423 55.469 197.8C34.6542 189.737 20.3427 199.218 3.1658 165.321Z" fill="#1D1111"/>
</g>
<path opacity="0.1" d="M63.127 200.958C60.5543 199.833 58.0115 198.753 55.4987 197.785C50.6041 195.997 45.536 194.725 40.3771 193.99C40.3771 193.99 62.1294 148.985 75.6684 141.911C83.0792 138.033 70.1253 156.786 63.127 200.958Z" fill="#1D1111"/>
<path opacity="0.1" d="M155.659 193.232C151.638 193.982 147.933 194.792 145.51 195.955C142.744 197.353 140.101 198.984 137.612 200.83C124.11 185.559 115.687 173.962 114.157 161.384C113.174 153.313 130.299 185.814 155.659 193.232Z" fill="#1D1111"/>
<path opacity="0.1" d="M77.3938 207.318C75.0611 206.321 72.7358 205.278 70.4181 204.236C75.5636 188.184 77.0188 172.177 78.7515 173.422C80.6417 174.787 78.7515 195.122 77.3938 207.318Z" fill="#1D1111"/>
<path d="M27.8818 204.588C27.8818 204.588 9.75983 195.325 0.0837801 169.559C-0.861322 167.047 6.31696 143.022 15.1829 130.345C24.0489 117.669 35.0601 111.593 48.8316 99.2018C62.6031 86.8105 89.2009 45.6235 98.667 38.1752C105.17 33.0597 107.93 33.6747 107.93 33.6747C107.93 33.6747 99.5896 39.0228 96.0192 43.4483C81.9177 60.9702 65.5359 99.2918 58.7176 107.205C50.3842 116.956 40.4007 127.12 35.6751 136.691C30.3796 147.447 26.6367 194.717 27.8818 204.588Z" fill="#9719CD"/>
<path d="M179.826 296.398C177.936 297.013 122.437 296.511 120.397 295.183C119.647 294.695 123.705 242.085 123.705 242.085L159.019 242.31L155.343 277.549C155.343 277.549 175.933 286.955 178.041 288.65C180.149 290.345 181.724 295.783 179.826 296.398Z" fill="#EB9481"/>
<path d="M179.827 296.398C177.936 297.013 122.438 296.511 120.398 295.183C120.15 295.033 120.015 289.692 120.81 282.739C130.891 284.299 166.865 289.362 169.641 287.682C171.576 286.512 169.828 284.742 168.215 283.557C172.828 285.807 177.134 287.93 178.026 288.657C180.104 290.345 181.717 295.791 179.827 296.398Z" fill="#1D1B1C"/>
<path d="M158.095 269.05H119.188C119.188 269.05 126.516 186.219 126.209 184.628C125.819 182.596 123.523 173.377 120.463 161.376C119.503 157.626 118.475 153.583 117.395 149.375C114.5 138.071 111.297 125.717 108.514 114.961C104.336 98.8567 101.073 86.3453 101.073 86.3453H134.04C134.04 86.3453 137.887 98.5267 142.726 114.376C150.616 140.134 161.163 175.583 162.228 184.201C163.893 198.16 158.095 269.05 158.095 269.05Z" fill="#1A1A1A"/>
<path d="M156.369 262.412C150.429 262.292 152.139 262.239 146.191 262.187C143.288 262.187 124.176 261.992 121.438 262.442C121.422 262.442 121.407 262.448 121.396 262.46C121.384 262.471 121.378 262.486 121.378 262.502C121.378 262.518 121.384 262.533 121.396 262.544C121.407 262.556 121.422 262.562 121.438 262.562C124.153 263.012 143.265 262.847 146.191 262.817C152.139 262.757 150.429 262.712 156.369 262.584C156.388 262.579 156.404 262.568 156.416 262.552C156.427 262.536 156.434 262.518 156.434 262.498C156.434 262.479 156.427 262.46 156.416 262.444C156.404 262.429 156.388 262.418 156.369 262.412Z" fill="#1D1B1C"/>
<path d="M133.531 179.078C132.256 173.452 130.351 167.939 128.685 162.419C125.315 151.207 121.925 139.999 118.514 128.792C116.814 123.192 115.102 117.589 113.376 111.983C112.506 109.163 111.644 106.335 110.759 103.515C109.873 100.694 108.906 98.0166 108.126 95.2638C107.803 94.1312 107.631 94.7538 108.036 96.1939C108.861 99.0967 109.671 102 110.519 104.895C112.189 110.625 113.874 116.354 115.574 122.079C118.949 133.48 122.352 144.872 125.783 156.253C127.493 161.964 129.208 167.669 130.928 173.37C131.796 176.075 132.5 178.83 133.036 181.621C133.492 184.553 133.608 187.528 133.381 190.487C133.006 196.435 132.316 202.375 131.768 208.316C131.221 214.257 130.666 220.22 130.111 226.168C129.016 238.012 128.43 241.822 127.365 253.673C127.23 255.174 127.095 256.674 126.983 258.174C126.945 258.677 127.733 258.639 127.733 258.174C129.016 246.465 129.488 242.745 130.591 231.014C131.693 219.282 132.773 207.671 133.869 196C134.139 193.074 134.454 190.134 134.454 187.194C134.449 184.463 134.139 181.74 133.531 179.078Z" fill="#1D1B1C"/>
<path d="M130.297 86.3829C128.009 104.092 123.643 137.298 120.463 161.391C113.03 132.205 101.073 86.3829 101.073 86.3829H130.297Z" fill="#1D1B1C"/>
<path d="M138.4 297.051C136.51 297.666 81.011 297.163 78.9708 295.836C78.2207 295.348 79.8409 242.737 79.8409 242.737L115.155 242.97L113.91 278.171C113.91 278.171 134.507 287.615 136.6 289.31C138.692 291.005 140.29 296.436 138.4 297.051Z" fill="#EB9481"/>
<path d="M138.398 297.051C136.508 297.666 81.0095 297.163 78.9692 295.836C78.7217 295.686 78.7142 290.487 78.8192 283.392C88.9003 284.952 125.437 290.015 128.212 288.335C130.147 287.165 128.4 285.394 126.787 284.209C131.4 286.46 135.705 288.582 136.598 289.31C138.676 290.99 140.288 296.436 138.398 297.051Z" fill="#1D1B1C"/>
<path d="M132.976 86.3829C132.976 86.3829 132.226 102.135 128.603 114.653C128.318 115.689 128.003 116.701 127.666 117.654C124.356 118.99 121.176 120.625 118.162 122.537C118.162 122.537 117.78 135.236 117.412 149.39C116.992 165.209 116.557 182.866 116.662 186.609C116.992 200.613 115.289 268.87 115.289 268.87L76.39 269.028C76.39 269.028 83.0432 191.769 82.9982 186.646C82.9232 178.395 84.8809 141.949 86.3961 115.389C87.2812 99.0292 88.0313 86.3829 88.0313 86.3829H132.976Z" fill="#1A1A1A"/>
<path d="M113.923 261.977C107.982 261.879 109.692 261.819 103.744 261.789C100.841 261.789 81.7293 261.692 78.9915 262.149C78.9315 262.149 78.9315 262.262 78.9915 262.269C81.7068 262.712 100.819 262.464 103.744 262.419C109.685 262.337 107.975 262.299 113.915 262.149C113.934 262.145 113.951 262.134 113.963 262.119C113.976 262.104 113.983 262.085 113.984 262.066C113.984 262.047 113.979 262.027 113.968 262.011C113.957 261.995 113.941 261.983 113.923 261.977Z" fill="#1D1B1C"/>
<path d="M91.3157 92.0235C90.6031 113.723 89.8155 135.423 88.8704 157.116C87.9253 178.808 86.5827 200.62 84.76 222.373C83.7474 234.501 83.1623 242.812 81.8572 254.911C81.8572 254.994 81.9697 255.024 81.9847 254.911C84.8125 233.384 86.0126 215.524 87.4078 193.862C88.8029 172.2 89.7405 150.507 90.4831 128.815C90.9032 116.544 91.2332 104.272 91.5857 92.001C91.5932 91.8285 91.3232 91.851 91.3157 92.0235Z" fill="#1D1B1C"/>
<path d="M129.285 116.739C125.418 118.354 121.699 120.302 118.168 122.559C118.026 122.649 118.131 122.867 118.281 122.792C122.031 120.969 125.864 119.214 129.532 117.189C129.592 117.156 129.636 117.101 129.655 117.035C129.674 116.97 129.666 116.9 129.633 116.84C129.601 116.78 129.545 116.736 129.48 116.717C129.415 116.698 129.344 116.706 129.285 116.739Z" fill="#1D1B1C"/>
<path d="M129.496 103.357C129.241 104.737 128.903 106.103 128.611 107.483C128.318 108.863 128.123 110.085 127.778 111.361C127.502 112.593 126.877 113.721 125.978 114.608C125.468 115.081 124.913 115.494 124.373 115.929C124.08 116.161 123.765 116.386 123.465 116.619C123.503 116.439 123.533 116.251 123.57 116.064L123.84 114.488C124.035 113.326 124.223 112.156 124.395 110.993C124.748 108.698 125.071 106.38 125.551 104.107C125.552 104.09 125.547 104.073 125.537 104.058C125.527 104.044 125.512 104.034 125.495 104.03C125.478 104.025 125.46 104.027 125.444 104.034C125.428 104.041 125.416 104.054 125.408 104.07C124.838 106.32 124.208 108.57 123.705 110.821C123.465 111.931 122.595 117.429 122.55 117.819C122.505 118.209 122.483 118.621 122.468 119.026C122.411 119.435 122.411 119.848 122.468 120.257C122.468 120.354 122.61 120.339 122.655 120.257C122.825 119.876 122.943 119.475 123.008 119.064C123.105 118.666 123.195 118.269 123.27 117.871C123.27 117.729 123.315 117.579 123.33 117.436C123.87 117.106 124.38 116.686 124.883 116.304C125.386 115.921 125.986 115.554 126.503 115.088C127.454 114.281 128.142 113.208 128.476 112.006C128.807 110.71 129.023 109.387 129.121 108.053C129.294 106.493 129.421 104.925 129.646 103.365C129.654 103.297 129.519 103.26 129.496 103.357Z" fill="#1D1B1C"/>
<path d="M114.546 46.651C125.445 64.1054 152.711 89.6981 160.039 84.9051C169.04 79.0545 166.37 51.039 166.272 46.2384C166.212 42.8781 141.519 47.0635 142.795 50.4314C143.545 52.4716 144.175 55.1344 143.672 54.8869C142.097 54.1368 138.767 49.8388 123.802 39.6602C115.469 34.0121 107.331 35.0922 114.546 46.651Z" fill="#EB9481"/>
<path d="M158.747 17.2104C158.022 17.129 157.289 17.2724 156.648 17.6212C156.007 17.97 155.488 18.5074 155.162 19.1606C154.217 18.3628 153.023 17.9197 151.787 17.908C149.596 17.9905 148.786 21.4558 148.786 21.4558C147.64 20.8351 146.333 20.5737 145.036 20.7058C142.951 20.9908 141.623 24.3662 141.623 24.3662C140.242 24.3792 138.911 24.8876 137.873 25.7988C135.202 28.3416 136.335 33.8547 137.018 37.3651C137.7 40.8755 142.928 50.199 143.768 52.0817L166.353 47.8887C166.353 47.8887 167.771 31.2669 166.353 27.2465C165.138 23.8561 161.538 17.6154 158.747 17.2104Z" fill="#EB9481"/>
<path d="M155.538 19.2506C157.646 22.551 158.666 26.2939 159.889 29.9693C159.895 29.9862 159.894 30.0048 159.886 30.0209C159.878 30.0371 159.865 30.0496 159.848 30.0555C159.831 30.0615 159.812 30.0605 159.796 30.0528C159.78 30.045 159.767 30.0312 159.761 30.0143C158.584 26.3389 156.694 22.9485 155.373 19.3331C155.362 19.3112 155.361 19.2859 155.368 19.2627C155.376 19.2395 155.393 19.2203 155.415 19.2094C155.437 19.1984 155.462 19.1966 155.485 19.2044C155.508 19.2121 155.527 19.2287 155.538 19.2506Z" fill="#1D1B1C"/>
<path d="M149.073 21.4709C149.486 22.2758 149.786 23.134 149.965 24.0211C150.22 24.9362 150.47 25.8513 150.715 26.7664C151.165 28.6016 151.568 30.4518 151.923 32.317C151.923 32.3995 151.818 32.4446 151.795 32.317C151.345 30.4868 150.865 28.6641 150.34 26.8489C150.078 25.9413 149.8 25.0413 149.523 24.1337C149.207 23.3002 148.984 22.4351 148.855 21.5534C148.859 21.5302 148.869 21.5085 148.884 21.4904C148.899 21.4722 148.918 21.4583 148.94 21.45C148.962 21.4416 148.986 21.4392 149.009 21.4428C149.032 21.4465 149.054 21.4562 149.073 21.4709Z" fill="#1D1B1C"/>
<path d="M141.593 24.4412C141.949 25.1645 142.18 25.9432 142.275 26.7439C142.463 27.584 142.65 28.4316 142.845 29.2717C143.243 30.9519 143.633 32.6321 144.09 34.2972C144.09 34.3151 144.083 34.3323 144.071 34.345C144.058 34.3576 144.041 34.3648 144.023 34.3648C144.005 34.3648 143.988 34.3576 143.975 34.345C143.962 34.3323 143.955 34.3151 143.955 34.2972C143.49 32.6096 143.003 30.9219 142.553 29.2342C142.328 28.4016 142.11 27.569 141.9 26.7289C141.631 25.9886 141.497 25.2063 141.503 24.4187C141.509 24.4116 141.517 24.4064 141.526 24.4036C141.535 24.4008 141.545 24.4005 141.554 24.4028C141.564 24.4052 141.572 24.41 141.579 24.4167C141.586 24.4235 141.59 24.4319 141.593 24.4412Z" fill="#1D1B1C"/>
<path d="M142.637 52.0293L167.629 47.4763C167.629 47.4763 170 86.4055 158.028 86.4055C148.42 86.4055 123.435 62.1104 115.071 48.5639C106.708 35.0174 114.194 33.1722 123.772 38.9479C131.581 43.6584 140.357 51.7892 142.997 53.9495L142.637 52.0293Z" fill="#EBEBEB"/>
<path d="M142.906 53.9418L169.504 51.5716L168.724 46.276L142.074 51.294L142.906 53.9418Z" fill="#EBEBEB"/>
<path d="M160.474 85.7829C159.726 86.1953 158.884 86.4096 158.029 86.4054C148.421 86.4054 123.435 62.1103 115.072 48.5638C109.251 39.1428 111.104 35.3849 115.995 35.91L160.474 85.7829Z" fill="#DBDBDB"/>
<path d="M142.997 53.9419L143.604 56.3346L144.189 58.7199L145.359 63.4904C145.757 65.0731 146.162 66.6557 146.589 68.2309C146.807 69.0185 147.025 69.8061 147.28 70.5862C147.535 71.3663 147.775 72.1388 148.03 72.9339C147.25 71.4902 146.59 69.985 146.057 68.4334C145.494 66.8808 145.059 65.2906 144.647 63.7004C144.234 62.1102 143.897 60.4901 143.642 58.8699C143.343 57.2393 143.127 55.5945 142.997 53.9419Z" fill="#1D1B1C"/>
<path d="M167.141 51.5641C163.271 51.8116 159.408 52.3142 155.553 52.7567C153.64 52.9817 151.72 53.2143 149.807 53.4618C147.894 53.7093 145.922 54.0318 143.964 54.2119C143.896 54.2119 143.896 54.3394 143.964 54.3319C145.937 54.1219 147.924 54.0243 149.905 53.8443C151.885 53.6643 153.738 53.4768 155.658 53.2593C159.491 52.8242 163.354 52.3892 167.149 51.6616C167.224 51.6691 167.201 51.5566 167.141 51.5641Z" fill="#1D1B1C"/>
<path d="M140.792 104.962L137.461 94.2212L135.121 78.3645C135.121 78.3645 140.064 69.476 137.049 63.1829C135.549 59.995 122.295 40.2079 116.797 36.3074C111.621 32.647 104.225 36.7275 101.488 39.6753C90.9864 51.0465 88.6761 79.0171 85.2183 109.433L122.235 106.433L125.865 98.4742L129.256 105.87L140.792 104.962Z" fill="#EBEBEB"/>
<path d="M137.964 65.0055C137.538 63.6749 136.924 62.412 136.141 61.2551C135.879 60.8275 135.294 59.9349 134.596 58.8848C134.393 58.3822 134.168 57.8797 133.921 57.3846C133.51 56.6774 133.137 55.9488 132.803 55.2019C132.797 55.187 132.786 55.175 132.771 55.1687C132.756 55.1624 132.739 55.1622 132.725 55.1681C132.71 55.1741 132.698 55.1858 132.691 55.2005C132.685 55.2153 132.685 55.232 132.691 55.2469C133.045 55.963 133.363 56.6965 133.643 57.4446C132.466 55.7045 131.221 53.9118 130.688 53.1767C130.643 53.1167 130.546 53.1767 130.591 53.2367C131.723 54.6768 135.436 61.0075 136.336 62.6127C137.21 64.2009 137.672 65.983 137.679 67.7958C137.682 69.6707 137.46 71.5392 137.019 73.3614C136.974 73.5189 137.131 73.5939 137.191 73.4439C137.712 72.1147 138.04 70.7179 138.166 69.2959C138.355 67.8651 138.286 66.4122 137.964 65.0055Z" fill="#1D1B1C"/>
<path d="M105.508 44.8209C102.163 49.989 85.7134 70.6537 85.1358 72.5739C84.5582 74.4941 89.5688 78.8221 89.5388 79.6172C89.4263 82.835 83.6656 104.572 80.7778 102.555C76.9674 99.8994 58.9054 80.8023 60.6081 71.8013C62.3108 62.8004 97.2796 39.5478 102.905 37.4176C108.531 35.2874 108.808 39.7279 105.508 44.8209Z" fill="#EB9481"/>
<path d="M72.6616 95.4514L88.3008 77.9295C88.3008 77.9295 85.3979 73.7216 85.4129 73.099C85.4279 72.4764 99.822 55.4196 105.365 46.0961C110.908 36.7726 108.643 33.8922 98.0518 39.2028C87.4607 44.5134 61.7854 64.4206 60.4952 70.9313C58.53 80.8623 72.6616 95.4514 72.6616 95.4514Z" fill="#EBEBEB"/>
<path d="M70.1268 94.9862L74.3198 99.1866L89.2314 78.6569L87.5137 76.2867L70.1268 94.9862Z" fill="#EBEBEB"/>
<path d="M86.651 76.8643C85.2726 78.1338 83.9655 79.4785 82.7355 80.8923C81.4454 82.2499 80.1928 83.6451 78.9326 85.0252C76.4048 87.808 73.9446 90.6133 71.5668 93.5236C71.5559 93.5356 71.5501 93.5514 71.5508 93.5675C71.5515 93.5837 71.5586 93.5989 71.5706 93.6099C71.5825 93.6208 71.5983 93.6266 71.6145 93.6259C71.6307 93.6252 71.6459 93.6181 71.6568 93.6061C74.3346 90.9358 76.9074 88.183 79.4277 85.3552C80.6878 83.9676 81.9404 82.5799 83.1781 81.1623C84.4449 79.8134 85.6368 78.3961 86.7485 76.9168C86.7785 76.8718 86.696 76.8268 86.651 76.8643Z" fill="#1D1B1C"/>
<path d="M98.9738 56.7847C98.3512 57.3397 97.7287 57.8873 97.0986 58.4124L96.8736 58.6074C97.9687 57.1072 99.0438 55.6071 100.099 54.1069C100.099 54.1069 100.061 54.0319 100.039 54.0619C96.7981 57.8126 93.7729 61.7444 90.9779 65.8382C90.9745 65.8499 90.9747 65.8624 90.9785 65.8741C90.9824 65.8857 90.9897 65.8959 90.9995 65.9032C91.0093 65.9106 91.0211 65.9147 91.0333 65.9152C91.0456 65.9156 91.0577 65.9123 91.068 65.9057C92.8306 63.9105 94.4883 61.8177 96.086 59.68C96.4835 59.335 96.8361 58.9749 97.2411 58.6074C97.8337 58.0148 98.4412 57.4373 99.0563 56.8672C99.1163 56.8147 99.0263 56.7397 98.9738 56.7847Z" fill="#1D1B1C"/>
<path d="M94.7817 109.448C96.897 107.325 93.1766 106.05 93.1766 106.05C93.1766 106.05 98.9672 106.59 100.295 103.56C101.622 100.529 97.0245 99.2543 96.702 99.1493C97.0095 99.1493 102.343 99.5318 103.363 96.344C104.42 93.0286 99.6123 92.4285 99.3122 92.391C99.6123 92.3235 103.52 91.3784 103.745 88.7831C104.128 84.2827 92.704 86.0679 89.7412 83.9601C89.7412 83.9601 89.7412 78.1695 89.8012 77.997C89.8012 77.997 88.9836 80.4197 87.1159 81.3648C84.7982 82.5425 82.6679 83.3826 81.9103 84.7552C81.5466 85.3602 81.3874 86.0662 81.4563 86.7687C81.5252 87.4712 81.8186 88.1329 82.2929 88.6556C82.2929 88.6556 79.1275 88.9032 78.2424 91.3859C77.7924 92.6686 79.4351 94.5213 79.4351 94.5213C79.4351 94.5213 76.9073 94.8288 76.2622 97.0866C75.7372 98.8867 77.4624 100.469 77.4624 100.469C77.4624 100.469 75.1746 101.887 75.2121 103.905C75.3321 107.963 90.2288 114.031 94.7817 109.448Z" fill="#EB9481"/>
<path d="M77.6717 100.762C77.6191 100.762 77.5816 100.799 77.6266 100.829C82.2144 104.161 87.7097 106.014 93.3784 106.14C93.5584 106.14 93.6409 105.847 93.4384 105.81C87.9658 104.901 82.6546 103.2 77.6717 100.762Z" fill="#1D1B1C"/>
<path d="M79.322 94.5287C79.262 94.5287 79.217 94.5962 79.2695 94.6337C83.8375 97.8891 90.4682 100.117 96.7764 99.3592C96.9939 99.3592 97.1664 99.0967 96.9114 99.1042C92.681 99.2842 83.95 96.8765 79.322 94.5287Z" fill="#1D1B1C"/>
<path d="M99.7022 92.1885C93.6265 92.6835 88.0009 91.1759 82.4503 88.7981C82.3828 88.7981 82.3453 88.8731 82.3978 88.9181C84.798 90.8233 88.4959 91.9634 91.4513 92.616C94.1739 93.2598 97.0172 93.1848 99.7022 92.3985C99.8297 92.3685 99.8372 92.181 99.7022 92.1885Z" fill="#1D1B1C"/>
<path d="M77.2737 100.485C76.1786 99.5544 75.2785 98.2793 75.631 96.7791C75.7841 96.0985 76.1785 95.4964 76.7411 95.0839C77.4263 94.6819 78.198 94.4503 78.9914 94.4088C77.9713 93.2762 77.3712 91.6636 78.0988 90.2159C78.4519 89.5909 79.0278 89.1221 79.7114 88.9033C80.5032 88.6669 81.3231 88.5382 82.1492 88.5207C81.7402 88.1955 81.4126 87.7794 81.1926 87.3054C80.9725 86.8315 80.866 86.3127 80.8816 85.7904C80.9222 85.2164 81.0992 84.6603 81.398 84.1685C81.6967 83.6767 82.1086 83.2632 82.5993 82.9626C83.7504 82.2707 84.979 81.7169 86.2597 81.3124C86.9126 81.0785 87.5347 80.7662 88.1124 80.3823C88.726 79.9358 89.1933 79.3171 89.455 78.6046C89.5075 78.4771 89.5225 78.6046 89.455 78.7096C89.2787 79.1923 89.0254 79.6432 88.7049 80.0448C88.3676 80.4659 87.9797 80.8438 87.5498 81.1699C86.4469 81.8476 85.2963 82.4443 84.1069 82.9551C83.0759 83.4585 82.238 84.2858 81.7217 85.3104C81.5026 85.8445 81.4364 86.429 81.5305 86.9986C81.6245 87.5682 81.8751 88.1004 82.2542 88.5357C82.2542 88.5357 82.2542 88.6557 82.1867 88.6632C81.4586 88.7988 80.7504 89.0256 80.079 89.3383C79.522 89.6079 79.0593 90.0392 78.7513 90.5759C78.493 91.2252 78.4104 91.931 78.5118 92.6224C78.6132 93.3137 78.895 93.9661 79.3289 94.5139C78.5555 94.7282 77.8265 95.0787 77.1762 95.549C76.7691 95.9246 76.4776 96.4086 76.3361 96.9441C76.1735 97.5612 76.1855 98.2113 76.371 98.8219C76.5564 99.4325 76.9079 99.9796 77.3862 100.402C77.3913 100.417 77.3913 100.432 77.3862 100.447C77.3913 100.462 77.3913 100.477 77.3862 100.492C77.3862 100.492 76.6361 100.972 76.6361 100.987C76.6361 101.002 76.6361 100.987 76.6361 100.942C76.8387 100.776 77.0517 100.623 77.2737 100.485Z" fill="#1D1B1C"/>
<path d="M105.666 36.2324C105.884 37.11 112.357 42.6006 116.37 42.3681C117.675 42.2856 115.342 35.3023 115.342 35.3023L115.455 34.7773L117.023 27.3664L108.284 21.8909L107.017 21.1408C107.017 21.1408 106.724 23.196 106.379 25.7613C106.379 25.8813 106.342 26.0013 106.327 26.1288C106.311 26.2563 106.281 26.4063 106.266 26.5414C106.214 26.9239 106.154 27.2914 106.109 27.704C106.064 28.1165 106.034 28.2891 106.004 28.6041C105.974 28.9191 105.936 29.2267 105.906 29.5342C105.669 31.7585 105.588 33.9968 105.666 36.2324Z" fill="#EB9481"/>
<path d="M106.377 25.7838C107.146 27.8525 108.357 29.729 109.924 31.2833C111.491 32.8376 113.378 34.0323 115.453 34.7848L117.02 27.374L108.282 21.8909L107.014 21.1408C107.014 21.1408 106.722 23.2185 106.377 25.7838Z" fill="#1D1B1C"/>
<path d="M127.447 16.4528C129.269 29.6243 121.589 32.2045 118.746 32.5871C116.173 32.9471 107.345 33.8172 104.172 20.9083C100.999 7.99941 106.549 2.98886 112.423 1.87124C118.296 0.753622 125.624 3.2814 127.447 16.4528Z" fill="#EB9481"/>
<path d="M123 14.3901C122.695 14.3666 122.392 14.324 122.092 14.2626C121.767 14.2604 121.451 14.1525 121.192 13.9551C121.127 13.8729 121.092 13.7711 121.092 13.6663C121.092 13.5614 121.127 13.4597 121.192 13.3775C121.333 13.2238 121.512 13.1107 121.711 13.05C121.911 12.9893 122.123 12.9832 122.325 13.0325C122.752 13.0613 123.151 13.2517 123.443 13.565C123.508 13.642 123.549 13.7369 123.56 13.8375C123.571 13.9381 123.551 14.0396 123.503 14.1287C123.455 14.2179 123.382 14.2905 123.292 14.3371C123.202 14.3838 123.1 14.4022 123 14.3901Z" fill="#1D1B1C"/>
<path d="M114.193 16.2053C114.501 16.2578 114.801 16.2503 115.109 16.2728C115.427 16.3412 115.758 16.3044 116.054 16.1678C116.139 16.1067 116.201 16.019 116.231 15.9185C116.261 15.818 116.257 15.7105 116.219 15.6128C116.114 15.4313 115.963 15.2809 115.781 15.1768C115.599 15.0727 115.393 15.0186 115.184 15.0202C114.761 14.9585 114.33 15.0575 113.976 15.2977C113.897 15.3576 113.838 15.4391 113.805 15.5323C113.771 15.6254 113.766 15.7262 113.789 15.8224C113.812 15.9186 113.863 16.006 113.934 16.074C114.006 16.142 114.096 16.1876 114.193 16.2053Z" fill="#1D1B1C"/>
<path d="M116.121 18.523C116.121 18.523 116.053 18.568 116.053 18.6056C116.166 19.5056 116.143 20.5558 115.355 20.9308C115.355 20.9308 115.355 20.9833 115.355 20.9758C116.346 20.7508 116.368 19.3556 116.121 18.523Z" fill="#1D1B1C"/>
<path d="M115.227 17.6529C113.765 17.6529 113.915 20.5932 115.272 20.5707C116.63 20.5482 116.45 17.6379 115.227 17.6529Z" fill="#1D1B1C"/>
<path d="M114.667 17.8405C114.42 18.013 114.18 18.3205 113.88 18.3655C113.58 18.4105 113.242 18.133 112.995 17.848H112.942C112.942 18.403 113.212 18.9656 113.812 19.0181C114.412 19.0706 114.727 18.553 114.84 17.983C114.862 17.9155 114.765 17.7655 114.667 17.8405Z" fill="#1D1B1C"/>
<path d="M121.477 17.8179C121.477 17.8179 121.545 17.8179 121.552 17.8929C121.552 18.8005 121.725 19.8356 122.557 20.0981V20.1506C121.545 20.0531 121.342 18.6805 121.477 17.8179Z" fill="#1D1B1C"/>
<path d="M122.242 16.8353C123.69 16.6628 123.937 19.5731 122.587 19.7381C121.237 19.9032 121.035 16.9853 122.242 16.8353Z" fill="#1D1B1C"/>
<path d="M122.864 16.9779C123.104 17.1129 123.359 17.3754 123.614 17.3679C123.869 17.3604 124.139 17.0304 124.319 16.7078H124.364C124.432 17.2629 124.297 17.8554 123.764 18.013C123.231 18.1705 122.886 17.6979 122.714 17.1579C122.699 17.0904 122.766 16.9253 122.864 16.9779Z" fill="#1D1B1C"/>
<path d="M120.494 21.9284C120.494 21.9284 120.764 23.2636 120.809 23.9011C120.809 23.9611 120.659 23.9986 120.441 24.0286C119.903 24.1642 119.337 24.1477 118.808 23.9808C118.278 23.8139 117.805 23.5033 117.441 23.0835C117.435 23.0709 117.433 23.0568 117.436 23.043C117.438 23.0293 117.444 23.0166 117.454 23.0067C117.464 22.9968 117.477 22.9903 117.491 22.9879C117.504 22.9855 117.519 22.9875 117.531 22.9935C118.378 23.4959 119.365 23.7116 120.344 23.6086C120.381 23.4286 119.804 21.3583 119.901 21.3583C120.41 21.3651 120.915 21.4434 121.402 21.5909C120.914 18.7856 119.984 16.0853 119.541 13.2875C119.541 13.19 119.669 13.1525 119.699 13.235C120.786 16.1014 121.585 19.0688 122.084 22.0934C122.092 22.416 120.757 22.0184 120.494 21.9284Z" fill="#1D1B1C"/>
<path d="M120.36 23.5411C120.068 24.1077 119.634 24.5886 119.1 24.9363C118.805 25.1158 118.461 25.1996 118.117 25.1763C117.367 25.1163 117.224 24.4262 117.254 23.8711C117.273 23.5557 117.328 23.2435 117.419 22.941C118.309 23.4522 119.341 23.6626 120.36 23.5411Z" fill="#1D1B1C"/>
<path d="M119.1 24.9363C118.805 25.1157 118.461 25.1996 118.117 25.1763C117.367 25.1163 117.224 24.4262 117.254 23.8711C117.637 23.8137 118.028 23.8878 118.363 24.0813C118.698 24.2747 118.958 24.5761 119.1 24.9363Z" fill="#9719CD"/>
<path d="M104.33 19.9706C107.496 19.8356 107.211 14.8476 107.211 14.8476C107.211 14.8476 110.788 14.3375 110.751 8.53191C111.509 9.65869 112.518 10.5945 113.698 11.2661C114.878 11.9376 116.198 12.3265 117.554 12.4023C118.597 12.4998 115.004 10.0096 115.004 10.0096C115.004 10.0096 119.332 13.5425 126.938 11.7273C127.478 11.5922 125.903 3.55887 119.737 1.10611C113.571 -1.34666 108.231 0.498539 104.735 4.48897C104.735 4.48897 100.43 6.73922 100.145 10.9547C99.8597 15.1701 103.1 20.0157 104.33 19.9706Z" fill="#1D1B1C"/>
<path d="M106.422 20.7208C106.422 20.7208 103.309 16.7229 101.486 17.848C99.6635 18.9731 102.139 24.8763 104.389 25.5813C104.671 25.692 104.973 25.7446 105.276 25.7358C105.579 25.7271 105.877 25.6572 106.152 25.5304C106.427 25.4036 106.674 25.2225 106.878 24.998C107.081 24.7734 107.237 24.5101 107.337 24.2237L106.422 20.7208Z" fill="#EB9481"/>
<path d="M102.236 19.5205C102.236 19.5205 102.199 19.573 102.236 19.5805C103.819 20.1281 104.704 21.5233 105.349 22.9859C105.252 22.8355 105.123 22.708 104.972 22.6121C104.82 22.5163 104.65 22.4545 104.473 22.431C104.295 22.4075 104.114 22.4228 103.943 22.4758C103.772 22.5289 103.615 22.6185 103.482 22.7384C103.444 22.7384 103.482 22.8284 103.527 22.8209C103.794 22.7187 104.087 22.7029 104.364 22.7755C104.641 22.8481 104.889 23.0056 105.072 23.2259C105.363 23.596 105.614 23.9958 105.822 24.4186C105.904 24.5536 106.152 24.4636 106.092 24.3061C106.032 22.2958 104.367 19.6105 102.236 19.5205Z" fill="#1D1B1C"/>
<path d="M114.868 42.7731C115.933 47.3861 116.923 52.0216 117.868 56.6496C118.814 61.2776 119.751 65.9356 120.696 70.5711C121.641 75.2067 122.504 79.8722 123.359 84.5302L124.627 91.5134C125.024 93.8537 125.444 96.1789 125.819 98.5192C125.279 96.2164 124.784 93.8987 124.267 91.5884L122.767 84.6427C121.799 80.0072 120.884 75.3567 119.939 70.7212C118.994 66.0857 118.131 61.4202 117.276 56.7621C116.421 52.1041 115.633 47.4311 114.868 42.7731Z" fill="#1D1B1C"/>
<path d="M121.118 56.3347C121.157 56.5073 121.144 56.6877 121.08 56.8528C121.017 57.018 120.905 57.1606 120.761 57.2624C120.616 57.3643 120.444 57.4208 120.267 57.4247C120.09 57.4287 119.916 57.38 119.767 57.2848C119.618 57.1895 119.5 57.0521 119.429 56.8899C119.358 56.7277 119.337 56.5482 119.369 56.374C119.4 56.1998 119.483 56.0389 119.606 55.9117C119.729 55.7845 119.887 55.6967 120.06 55.6596C120.29 55.6104 120.529 55.6536 120.727 55.78C120.925 55.9063 121.065 56.1057 121.118 56.3347Z" fill="#1D1B1C"/>
<path d="M122.699 65.3431C122.737 65.5142 122.723 65.6927 122.659 65.8559C122.595 66.0192 122.484 66.1597 122.341 66.2599C122.197 66.36 122.026 66.4151 121.851 66.4184C121.676 66.4216 121.504 66.3727 121.356 66.2779C121.209 66.1832 121.093 66.0468 121.023 65.886C120.953 65.7253 120.933 65.5474 120.964 65.375C120.995 65.2026 121.077 65.0433 121.199 64.9175C121.321 64.7916 121.478 64.7048 121.649 64.668C121.878 64.6189 122.117 64.6624 122.314 64.7889C122.51 64.9154 122.649 65.1146 122.699 65.3431Z" fill="#1D1B1C"/>
<path d="M124.289 74.3592C124.325 74.5301 124.31 74.7078 124.245 74.8699C124.18 75.032 124.068 75.1713 123.924 75.2702C123.78 75.3691 123.61 75.4233 123.436 75.4258C123.261 75.4283 123.09 75.3792 122.943 75.2845C122.796 75.1898 122.681 75.0538 122.611 74.8936C122.542 74.7335 122.521 74.5563 122.552 74.3844C122.583 74.2125 122.664 74.0536 122.785 73.9277C122.906 73.8017 123.061 73.7144 123.232 73.6766C123.346 73.6513 123.464 73.6489 123.579 73.6696C123.695 73.6903 123.805 73.7336 123.903 73.7971C124.001 73.8606 124.086 73.943 124.152 74.0395C124.219 74.136 124.265 74.2446 124.289 74.3592Z" fill="#1D1B1C"/>
<path d="M125.881 83.3675C125.918 83.5402 125.904 83.7202 125.839 83.8847C125.775 84.0492 125.662 84.1908 125.517 84.2915C125.372 84.3923 125.2 84.4476 125.023 84.4505C124.847 84.4535 124.673 84.4039 124.525 84.308C124.376 84.2122 124.259 84.0744 124.189 83.9121C124.119 83.7499 124.099 83.5705 124.131 83.3966C124.163 83.2228 124.246 83.0624 124.369 82.9357C124.492 82.809 124.65 82.7217 124.823 82.685C125.054 82.6359 125.294 82.6802 125.493 82.8081C125.691 82.936 125.83 83.1371 125.881 83.3675Z" fill="#1D1B1C"/>
<path d="M127.47 92.3761C127.508 92.5487 127.493 92.7287 127.428 92.8932C127.364 93.0577 127.252 93.1993 127.106 93.3C126.961 93.4008 126.789 93.4561 126.613 93.459C126.436 93.462 126.262 93.4124 126.114 93.3166C125.965 93.2207 125.849 93.0829 125.778 92.9207C125.708 92.7584 125.688 92.579 125.72 92.4052C125.752 92.2313 125.835 92.0709 125.958 91.9442C126.081 91.8175 126.239 91.7302 126.412 91.6935C126.643 91.6445 126.884 91.6887 127.082 91.8166C127.28 91.9445 127.419 92.1456 127.47 92.3761Z" fill="#1D1B1C"/>
<path d="M115.417 35.5049L114.187 41.7155L105.636 35.7599L104.038 38.4902C104.038 38.4902 113.249 48.7738 113.197 48.2412L114.637 42.8181L118.725 45.631L116.812 36.99L115.417 35.5049Z" fill="#EBEBEB"/>
<path d="M118.034 41.273C117.674 39.8629 117.344 38.4227 116.916 37.0276C116.916 36.9751 116.818 36.9676 116.811 37.0276C116.811 38.4677 118.214 43.8758 118.454 45.196C118.281 45.0759 114.703 42.7507 114.703 42.8032C114.336 43.6883 113.271 47.6412 113.203 47.9938C111.74 46.3586 106.227 40.4929 104.585 38.9928C104.576 38.9818 104.563 38.9749 104.549 38.9735C104.535 38.9721 104.521 38.9763 104.51 38.9853C104.499 38.9942 104.492 39.0072 104.49 39.0212C104.489 39.0353 104.493 39.0493 104.502 39.0603C105.852 40.823 113.188 48.8113 113.271 48.7438C113.871 46.8613 114.372 44.9485 114.771 43.0132C115.408 43.5458 119.091 46.2386 119.061 46.0135C118.806 44.4157 118.463 42.8332 118.034 41.273Z" fill="#1D1B1C"/>
<path d="M105.62 33.9222C104.683 32.8346 103.648 35.6249 105.373 36.8551C107.931 38.6778 112.836 40.6055 113.669 40.5005C114.501 40.3955 116.032 37.2226 116.197 36.5925C116.362 35.9625 115.642 34.7848 115.447 34.9499C115.252 35.1149 113.759 38.3702 113.466 38.5577C113.174 38.7453 107.646 36.2475 105.62 33.9222Z" fill="#9719CD"/>
</svg>
