<svg width="35" height="34" viewBox="0 0 35 34" fill="none" xmlns="http://www.w3.org/2000/svg">
<path d="M28.7276 4.6859C31.1639 7.00427 32.858 9.99301 33.5957 13.2742C34.3334 16.5554 34.0815 19.9816 32.8719 23.1196C31.6624 26.2577 29.5495 28.9666 26.8004 30.9038C24.0513 32.841 20.7895 33.9195 17.4274 34.0029C14.0654 34.0863 10.7541 33.1709 7.91233 31.3724C5.07055 29.5739 2.8259 26.9731 1.46222 23.8989C0.0985413 20.8247 -0.32291 17.4152 0.251156 14.1015C0.825221 10.7878 2.36902 7.71868 4.68734 5.28235C7.79619 2.01533 12.0755 0.117093 16.5839 0.00523737C21.0924 -0.106618 25.4606 1.57707 28.7276 4.6859Z" fill="#E14444"/>
<path d="M7.67151 31.2142C9.74421 32.5762 12.0898 33.4684 14.5438 33.828C16.9977 34.1876 19.5007 34.0061 21.8771 33.296C24.2534 32.586 26.4457 31.3646 28.3001 29.7177C30.1545 28.0707 31.6262 26.038 32.6119 23.7621C33.5976 21.4862 34.0734 19.0222 34.0061 16.5429C33.9387 14.0637 33.3298 11.6291 32.222 9.4101C31.1142 7.19107 29.5344 5.24125 27.5933 3.69739C25.6522 2.15354 23.3968 1.05302 20.9854 0.473038C23.1023 3.55543 25.2145 8.49807 23.6235 14.8618C21.8098 22.1108 13.3817 27.9795 7.67151 31.2142Z" fill="#CC3A3A"/>
<path d="M7.67151 31.2142C9.74421 32.5762 12.0898 33.4684 14.5438 33.828C16.9977 34.1876 19.5007 34.0061 21.8771 33.296C24.2534 32.586 26.4457 31.3646 28.3001 29.7177C30.1545 28.0707 31.6262 26.038 32.6119 23.7621C33.5976 21.4862 34.0734 19.0222 34.0061 16.5429C33.9387 14.0637 33.3298 11.6291 32.222 9.4101C31.1142 7.19107 29.5344 5.24125 27.5933 3.69739C25.6522 2.15354 23.3968 1.05302 20.9854 0.473038C23.1023 3.55543 25.2145 8.49807 23.6235 14.8618C21.8098 22.1108 13.3817 27.9795 7.67151 31.2142Z" fill="#C63939"/>
<path d="M25.2998 26.8058C23.3654 28.8373 20.8714 30.2487 18.1338 30.8609C15.3963 31.4731 12.5386 31.2586 9.92312 30.2446C9.80688 30.2005 9.68631 30.1522 9.57007 30.1003C7.16563 29.0933 5.08564 27.4424 3.55902 25.3293C2.59393 24.0022 1.87243 22.514 1.42818 20.9343V20.9302C0.642637 18.1778 0.709546 15.2521 1.62009 12.5385C2.53063 9.82492 4.24205 7.45096 6.52878 5.72951C8.81551 4.00806 11.5702 3.01994 14.4298 2.89539C17.2893 2.77084 20.1195 3.51571 22.5472 5.03181C22.8683 5.23255 23.1812 5.44401 23.4901 5.6738C23.9501 6.01844 24.3896 6.38957 24.8065 6.78529C27.5263 9.37486 29.1062 12.9387 29.1987 16.693C29.2912 20.4473 27.8888 24.0846 25.2998 26.805V26.8058Z" fill="#E95453"/>
<path d="M29.9427 5.9677C29.3645 7.66879 28.6476 9.31954 27.7993 10.9033C26.2948 13.7603 24.0716 17.0788 20.8052 20.6221C20.6848 20.7505 20.5684 20.8789 20.4441 21.0073C20.428 21.0279 20.4078 21.0433 20.3919 21.0635C18.3047 23.2904 16.0756 25.3801 13.7187 27.3194C13.6907 27.34 13.6666 27.3635 13.6385 27.3835C12.3463 28.4509 11.0943 29.402 9.91063 30.2526C9.29234 30.698 8.69878 31.1153 8.12088 31.5005C8.12091 31.5011 8.12084 31.5016 8.12065 31.5021C8.12047 31.5026 8.12018 31.503 8.11981 31.5034C8.11944 31.5038 8.119 31.5041 8.11851 31.5043C8.11802 31.5045 8.1175 31.5046 8.11697 31.5046C8.00052 31.4325 7.8882 31.3563 7.77176 31.28C7.73981 31.2594 7.70354 31.2359 7.67139 31.2157C6.82058 30.6555 6.02061 30.0218 5.28066 29.3217C4.2879 28.3743 3.41227 27.3114 2.67249 26.1556C4.59064 24.3741 7.05433 22.0386 10.2284 18.9488C16.9577 12.408 20.8462 7.52456 23.0331 4.33437C23.7272 3.32326 24.253 2.48053 24.6382 1.8103C24.6392 1.8103 24.6402 1.80988 24.6409 1.80915C24.6417 1.80841 24.6421 1.80742 24.6421 1.80638C24.7103 1.84245 24.7746 1.8746 24.8387 1.91067C24.9069 1.94694 24.9753 1.98301 25.0394 2.01907C25.1356 2.0673 25.2318 2.11944 25.328 2.1755C25.4442 2.23568 25.5567 2.3039 25.673 2.37212C25.7171 2.39623 25.7614 2.42447 25.8014 2.44837C25.9539 2.54071 26.1025 2.63386 26.2468 2.72929C26.4233 2.84154 26.5959 2.95792 26.7645 3.07842C26.8929 3.16663 27.0174 3.25896 27.1416 3.35129C27.2218 3.40755 27.2983 3.46773 27.3745 3.52791C27.6754 3.75668 27.9683 3.99713 28.2531 4.24926C28.4137 4.38981 28.5703 4.53429 28.7271 4.68206C28.8354 4.78635 28.9438 4.89084 29.0522 4.99904C29.2568 5.20775 29.4574 5.42072 29.654 5.63794C29.7541 5.74697 29.8504 5.85517 29.9427 5.9677Z" fill="#E56E3E"/>
<path d="M34.008 17.0064C34.008 17.1667 34.0038 17.3273 33.9999 17.4878C33.996 17.6484 33.9919 17.8089 33.9793 17.9693C29.7178 23.6716 24.742 29.2814 20.6932 33.603C20.5283 33.6391 20.3635 33.6713 20.1996 33.7034C20.0358 33.7356 19.8699 33.7675 19.7021 33.7916C19.5737 33.8122 19.4453 33.8318 19.3169 33.8477C19.2365 33.8598 19.1564 33.8718 19.076 33.8798C19.064 33.8798 19.0521 33.884 19.0399 33.884C18.9162 33.9 18.7951 33.912 18.6747 33.9239C18.5385 33.9361 18.4018 33.948 18.2695 33.9602C18.0016 33.9763 17.7318 33.9922 17.463 34.0002H17.4268C17.1298 34.0082 16.8369 34.0082 16.5406 34.0002C16.2357 33.9922 15.9346 33.9763 15.6337 33.9522C15.4812 33.94 15.3287 33.9239 15.1803 33.9079C15.1764 33.9079 15.1723 33.9039 15.1684 33.9079C14.8633 33.8718 14.5624 33.8318 14.2574 33.7842C13.9565 33.736 13.6555 33.6798 13.3545 33.6156L13.3625 33.6076C14.2488 32.8244 15.116 32.0105 15.9629 31.1839C21.2802 25.9875 25.79 20.0927 29.0925 15.2774C30.4408 13.3072 31.5925 11.5176 32.5113 10.0288C32.6397 10.3058 32.7561 10.5867 32.8643 10.8676C32.9205 11.0079 32.9727 11.1483 33.021 11.2888C33.0731 11.4292 33.1213 11.5737 33.1652 11.7142C33.2093 11.8426 33.2454 11.9669 33.2856 12.0953C33.2936 12.1275 33.3062 12.1635 33.3136 12.1957C33.3538 12.3241 33.3899 12.4486 33.422 12.577C33.4632 12.7253 33.4983 12.8698 33.5343 13.0143C33.5665 13.1388 33.5946 13.2632 33.6186 13.3875C33.6467 13.5199 33.6747 13.6524 33.6988 13.7847C33.7271 13.9173 33.7512 14.0497 33.7712 14.182C33.7953 14.3144 33.8153 14.45 33.8352 14.5833C33.8552 14.7167 33.8713 14.8512 33.8874 14.9846C33.8995 15.0969 33.9156 15.2092 33.9237 15.3257C33.9397 15.4621 33.9517 15.6025 33.9597 15.743C33.9758 15.9516 33.9878 16.1602 33.9958 16.3689V16.3809C34.0039 16.5893 34.008 16.7978 34.008 17.0064Z" fill="#E56E3E"/>
<path d="M0.635503 21.6066C4.36522 18.4555 7.8358 15.01 11.0138 11.3032C15.8472 5.6701 17.9092 2.14583 18.7882 0.0959868C16.0266 -0.19608 13.2356 0.19279 10.6591 1.2286C8.08252 2.26441 5.79895 3.91562 4.008 6.03786C2.21705 8.16011 0.973259 10.6888 0.385353 13.4028C-0.202553 16.1168 -0.116672 18.9335 0.635503 21.6066Z" fill="#E56E3E"/>
<path d="M27.8039 10.8945C26.2994 13.7555 24.076 17.0741 20.8056 20.6223C17.5124 24.1889 13.8665 27.4128 9.92367 30.2448C7.37261 29.2544 5.16244 27.5474 3.55957 25.3294C5.33201 23.668 7.52407 21.5815 10.2287 18.949C16.4846 12.8691 20.2846 8.21892 22.5478 5.03285C24.817 6.45326 26.6391 8.48541 27.8045 10.8955L27.8039 10.8945Z" fill="#ED764C"/>
<path d="M25.3004 26.8054C22.8554 29.3872 19.5234 30.947 15.9749 31.1712C21.2876 25.9788 25.794 20.0881 29.0926 15.2728C29.3567 17.3561 29.1534 19.4721 28.4974 21.4669C27.8415 23.4618 26.7493 25.2855 25.3004 26.8054Z" fill="#ED764C"/>
<path d="M17.2183 3.04999C15.9784 5.08047 14.0403 7.77705 11.0148 11.3042C8.0604 14.7444 4.85622 17.962 1.42832 20.9306C0.774731 18.6457 0.706904 16.2331 1.23108 13.915C1.75526 11.597 2.85457 9.4483 4.42767 7.66693C6.00077 5.88557 7.99704 4.52891 10.2324 3.72204C12.4678 2.91517 14.8701 2.68405 17.2183 3.04999Z" fill="#ED764C"/>
<path opacity="0.4" d="M6.95943 8.23308C7.5703 8.81468 7.25169 10.142 6.24737 11.1974C5.24306 12.2528 3.9333 12.6368 3.32201 12.0552C2.71073 11.4735 3.02936 10.1463 4.03367 9.09086C5.03798 8.03543 6.34814 7.65147 6.95943 8.23308Z" fill="white"/>
<path opacity="0.4" d="M7.60161 13.5282C8.02411 13.9303 7.91405 14.7343 7.35429 15.3212C6.79453 15.9082 5.99796 16.059 5.57505 15.6567C5.15214 15.2544 5.26199 14.4511 5.82237 13.8637C6.38275 13.2763 7.17746 13.1246 7.60161 13.5282Z" fill="white"/>
<path d="M34.0083 17.0064C34.0083 17.1668 34.0042 17.3273 34.0003 17.4879C33.9964 17.6484 33.9923 17.809 33.9797 17.9693C29.7182 23.6716 24.7424 29.2814 20.6936 33.6031C20.5287 33.6391 20.3638 33.6713 20.2 33.7034C20.0362 33.7356 19.8702 33.7675 19.7025 33.7916C19.5741 33.8123 19.4457 33.8318 19.3173 33.8477C19.2369 33.8599 19.1567 33.8718 19.0764 33.8799C19.0644 33.8799 19.0524 33.884 19.0403 33.884C18.9166 33.9001 18.7954 33.912 18.6751 33.924C18.5389 33.9361 18.4022 33.9481 18.2699 33.9602C18.002 33.9763 17.7322 33.9922 17.4634 34.0002H17.4272C17.1302 34.0083 16.8373 34.0083 16.541 34.0002C16.2361 33.9922 15.935 33.9763 15.6341 33.9522C15.4816 33.94 15.3291 33.924 15.1807 33.9079C15.1768 33.9079 15.1727 33.904 15.1687 33.9079C14.8637 33.8718 14.5628 33.8318 14.2578 33.7842C13.9608 33.7321 13.6601 33.6758 13.3629 33.6076C14.2491 32.8244 15.1164 32.0106 15.9633 31.1839C21.2806 25.9876 25.7904 20.0927 29.0929 15.2775C30.4412 13.3072 31.5929 11.5176 32.5117 10.0288C32.6401 10.3058 32.7565 10.5867 32.8647 10.8676C32.9209 11.0079 32.9731 11.1483 33.0213 11.2889C33.0735 11.4292 33.1217 11.5737 33.1656 11.7143C33.2097 11.8427 33.2458 11.9669 33.286 12.0953C33.294 12.1275 33.3066 12.1636 33.314 12.1957C33.3542 12.3241 33.3903 12.4486 33.4224 12.577C33.4636 12.7254 33.4987 12.8698 33.5347 13.0143C33.5669 13.1388 33.595 13.2632 33.619 13.3876C33.647 13.5199 33.6751 13.6524 33.6992 13.7847C33.7275 13.9173 33.7516 14.0498 33.7715 14.1821C33.7957 14.3144 33.8156 14.45 33.8356 14.5833C33.8556 14.7167 33.8717 14.8513 33.8878 14.9846C33.8999 15.0969 33.916 15.2093 33.9241 15.3257C33.9401 15.4621 33.9521 15.6025 33.9601 15.7431C33.9762 15.9516 33.9882 16.1603 33.9962 16.369V16.3809C34.0043 16.5894 34.0083 16.7979 34.0083 17.0064Z" fill="#D86239"/>
<path d="M13.6399 27.3836C12.3476 28.451 11.0956 29.4021 9.91198 30.2527C9.29369 30.6981 8.70013 31.1154 8.12223 31.5006C8.006 31.4285 7.88954 31.3563 7.7731 31.2801C7.74115 31.2595 7.70488 31.236 7.67273 31.2158C9.764 30.0381 11.7833 28.7371 13.72 27.3195C13.692 27.3395 13.6679 27.3646 13.6399 27.3836Z" fill="#D86239"/>
<path d="M23.6231 14.864C24.5367 11.3793 24.3303 7.6954 23.0332 4.33452C23.7273 3.3234 24.2531 2.48067 24.6383 1.81044C24.7065 1.84259 24.7747 1.87474 24.8388 1.91081C24.907 1.94708 24.9755 1.98315 25.0396 2.01922C25.1357 2.06744 25.2319 2.11959 25.3281 2.17565C25.4443 2.23583 25.5569 2.30404 25.6731 2.37226C25.7172 2.39638 25.7615 2.42461 25.8015 2.44852C25.954 2.54085 26.1026 2.63401 26.2469 2.72943C26.4234 2.84168 26.596 2.95806 26.7646 3.07856C26.893 3.16677 27.0175 3.2591 27.1418 3.35143C27.2219 3.4077 27.2984 3.46788 27.3747 3.52806C27.6756 3.75683 27.9684 3.99727 28.2532 4.2494C28.4138 4.38996 28.5704 4.53443 28.7273 4.68221C28.8355 4.78649 28.9439 4.89098 29.0523 4.99918C29.2569 5.20789 29.4575 5.42086 29.6541 5.63809C29.7545 5.74649 29.8507 5.85469 29.9426 5.96784C29.3644 7.66893 28.6475 9.31968 27.7992 10.9035C26.2947 13.7604 24.0715 17.079 20.8051 20.6222C20.6847 20.7506 20.5683 20.879 20.444 21.0074C20.4279 21.028 20.4077 21.0435 20.3918 21.0637C21.9054 19.1496 23.0691 17.0709 23.6231 14.864Z" fill="#D86239"/>
<path d="M25.3003 26.8178C23.3659 28.8493 20.8718 30.2606 18.1343 30.8728C15.3968 31.485 12.5391 31.2706 9.9236 30.2568C9.80737 30.2125 9.6868 30.1644 9.57056 30.1125C15.096 26.7337 22.0019 21.3566 23.6231 14.8761C24.4096 11.8573 24.3638 8.68176 23.4906 5.68684C23.9506 6.03155 24.3901 6.40274 24.8069 6.79853C27.5268 9.38803 29.1067 12.9518 29.1992 16.7061C29.2918 20.4604 27.8893 24.0977 25.3003 26.818V26.8178Z" fill="#D13D3D"/>
<path d="M9.57056 30.1127C10.8787 29.3141 12.2671 28.3992 13.6395 27.3839C12.3473 28.4513 11.0953 29.4025 9.91164 30.253C9.79932 30.2091 9.68288 30.1648 9.57056 30.1127Z" fill="#E26B47"/>
<path d="M23.6239 14.8748C24.4105 11.856 24.3647 8.68053 23.4914 5.68568C23.9514 6.03032 24.3909 6.40144 24.8078 6.79717C26.0463 7.97261 27.0606 9.36362 27.8011 10.9022C26.2966 13.7591 24.0734 17.0777 20.807 20.621C20.6866 20.7494 20.5702 20.8778 20.4459 21.0062C21.9339 19.1129 23.078 17.0594 23.6239 14.8748Z" fill="#E26B47"/>
<path d="M25.3005 26.8178C22.8556 29.3995 19.5236 30.9594 15.975 31.1835H15.963C21.2803 25.9872 25.7902 20.0924 29.0927 15.2771V15.2852C29.3568 17.3684 29.1535 19.4844 28.4975 21.4792C27.8416 23.4741 26.7494 25.2978 25.3005 26.8178Z" fill="#E26B47"/>
</svg>
