<svg width="143" height="166" viewBox="0 0 143 166" fill="none" xmlns="http://www.w3.org/2000/svg">
<path d="M50.2694 121.227C47.3284 117.525 43.2608 112.567 40.2067 108.722C36.1225 103.581 32.344 98.3865 28.8812 93.199C27.7513 93.4814 26.6247 93.7639 25.4981 94.0464C29.6787 100.57 34.3213 107.083 39.3792 113.451C43.0747 118.103 46.4344 121.848 48.1559 124.178C48.5048 124.65 49.196 125.693 50.1299 127.083C51.2066 126.351 52.2933 125.614 53.3899 124.869C52.3298 123.716 51.283 122.503 50.2694 121.227ZM71.7375 140.714C69.3215 138.428 63.4626 134.61 57.3645 128.88C56.0186 129.804 54.6594 130.741 53.2969 131.685C57.2349 137.235 62.5986 144.051 66.7991 146.038C73.1266 149.036 74.8314 143.645 71.7375 140.714ZM103.717 57.6671C68.8496 13.7806 26.2558 -10.3294 7.8917 4.26287C-6.37157 15.5951 -0.516049 48.7143 19.1441 83.5051C20.161 83.1562 21.168 82.8139 22.1649 82.4749C2.32197 48.578 -3.10817 17.0772 10.3442 6.38641C27.2495 -7.04606 68.0686 17.157 101.926 59.7707C108.934 68.5905 115.096 77.4436 120.313 86.074C140.292 119.14 146.424 149.042 132.619 161.249C128.395 164.984 115.488 166.449 98.5791 158.839C98.3432 159.135 98.722 159.936 99.0178 160.132C113.613 166.001 127.594 168.237 134.653 162.631C151.614 149.152 138.584 101.554 103.717 57.6671Z" fill="url(#paint0_linear_111_2)"/>
<path d="M49.7323 75.914V85.6324H47.2588V84.1413C46.9547 84.6559 46.5396 85.0535 46.0133 85.3342C45.4987 85.6149 44.9023 85.7552 44.224 85.7552C43.7094 85.7552 43.2708 85.6441 42.9083 85.4219V90.2636H40.4699V75.914H42.9083V81.2644C42.9083 82.0246 43.1013 82.6093 43.4872 83.0186C43.8848 83.428 44.4169 83.6326 45.0835 83.6326C45.7502 83.6326 46.2764 83.428 46.6624 83.0186C47.06 82.6093 47.2588 82.0246 47.2588 81.2644V75.914H49.7323ZM63.2528 73.3879L58.7619 85.6324H55.7797L51.2889 73.3879H53.9202L57.2884 83.1239L60.639 73.3879H63.2528ZM73.7595 80.5627C73.7595 80.9136 73.7361 81.2293 73.6894 81.51H66.5847C66.6432 82.2117 66.8888 82.7613 67.3215 83.159C67.7542 83.5566 68.2863 83.7554 68.9178 83.7554C69.83 83.7554 70.4791 83.3636 70.865 82.5801H73.5139C73.2333 83.5157 72.6953 84.2875 71.9 84.8957C71.1048 85.4921 70.1283 85.7903 68.9705 85.7903C68.0349 85.7903 67.1928 85.5857 66.4444 85.1763C65.7076 84.7553 65.1287 84.1647 64.7077 83.4046C64.2984 82.6444 64.0937 81.7673 64.0937 80.7732C64.0937 79.7675 64.2984 78.8845 64.7077 78.1243C65.117 77.3641 65.6901 76.7794 66.4268 76.3701C67.1636 75.9608 68.0115 75.7561 68.9705 75.7561C69.8944 75.7561 70.7189 75.9549 71.4439 76.3525C72.1807 76.7502 72.7479 77.3174 73.1456 78.0541C73.5549 78.7792 73.7595 79.6154 73.7595 80.5627ZM71.2159 79.861C71.2042 79.2295 70.9762 78.7266 70.5317 78.3524C70.0873 77.9664 69.5435 77.7735 68.9003 77.7735C68.2922 77.7735 67.7776 77.9606 67.3566 78.3348C66.9473 78.6974 66.6958 79.2061 66.6023 79.861H71.2159ZM78.0081 77.4226C78.3238 76.908 78.7332 76.5046 79.236 76.2122C79.7506 75.9198 80.3354 75.7736 80.9903 75.7736V78.3524H80.3412C79.5694 78.3524 78.9846 78.5336 78.587 78.8962C78.201 79.2587 78.0081 79.8902 78.0081 80.7908V85.6324H75.5522V75.914H78.0081V77.4226ZM86.3634 85.7903C85.5682 85.7903 84.8548 85.65 84.2233 85.3693C83.5918 85.0769 83.0889 84.6852 82.7146 84.194C82.3521 83.7028 82.1533 83.159 82.1182 82.5625H84.5917C84.6384 82.9368 84.8197 83.2467 85.1355 83.4923C85.4629 83.7379 85.8664 83.8607 86.3459 83.8607C86.8137 83.8607 87.1762 83.7671 87.4335 83.58C87.7025 83.3929 87.837 83.1531 87.837 82.8608C87.837 82.545 87.6733 82.3111 87.3458 82.1591C87.0301 81.9953 86.5213 81.8199 85.8196 81.6328C85.0945 81.4574 84.4981 81.2761 84.0303 81.089C83.5742 80.9019 83.1766 80.6153 82.8374 80.2294C82.51 79.8435 82.3462 79.323 82.3462 78.6681C82.3462 78.1302 82.4983 77.639 82.8023 77.1946C83.1181 76.7502 83.5625 76.3993 84.1356 76.142C84.7203 75.8847 85.4045 75.7561 86.188 75.7561C87.3458 75.7561 88.2697 76.0485 88.9597 76.6332C89.6497 77.2063 90.0298 77.984 90.1 78.9664H87.7493C87.7142 78.5804 87.5505 78.2764 87.2581 78.0541C86.9774 77.8202 86.5973 77.7033 86.1179 77.7033C85.6734 77.7033 85.3284 77.7852 85.0829 77.9489C84.849 78.1126 84.732 78.3407 84.732 78.633C84.732 78.9605 84.8957 79.2119 85.2232 79.3874C85.5507 79.5511 86.0594 79.7207 86.7494 79.8961C87.4511 80.0715 88.03 80.2528 88.4861 80.4399C88.9422 80.627 89.334 80.9194 89.6614 81.317C90.0006 81.703 90.176 82.2175 90.1877 82.8608C90.1877 83.4221 90.0298 83.925 89.714 84.3694C89.41 84.8138 88.9656 85.1647 88.3808 85.4219C87.8078 85.6675 87.1353 85.7903 86.3634 85.7903ZM101.238 80.5627C101.238 80.9136 101.215 81.2293 101.168 81.51H94.0632C94.1217 82.2117 94.3672 82.7613 94.8 83.159C95.2327 83.5566 95.7648 83.7554 96.3963 83.7554C97.3085 83.7554 97.9576 83.3636 98.3435 82.5801H100.992C100.712 83.5157 100.174 84.2875 99.3785 84.8957C98.5833 85.4921 97.6067 85.7903 96.4489 85.7903C95.5133 85.7903 94.6713 85.5857 93.9228 85.1763C93.1861 84.7553 92.6072 84.1647 92.1861 83.4046C91.7768 82.6444 91.5722 81.7673 91.5722 80.7732C91.5722 79.7675 91.7768 78.8845 92.1861 78.1243C92.5955 77.3641 93.1685 76.7794 93.9053 76.3701C94.6421 75.9608 95.49 75.7561 96.4489 75.7561C97.3728 75.7561 98.1973 75.9549 98.9224 76.3525C99.6592 76.7502 100.226 77.3174 100.624 78.0541C101.033 78.7792 101.238 79.6154 101.238 80.5627ZM98.6944 79.861C98.6827 79.2295 98.4546 78.7266 98.0102 78.3524C97.5658 77.9664 97.022 77.7735 96.3788 77.7735C95.7706 77.7735 95.2561 77.9606 94.835 78.3348C94.4257 78.6974 94.1743 79.2061 94.0807 79.861H98.6944Z" fill="#2E85FE"/>
<defs>
<linearGradient id="paint0_linear_111_2" x1="-14.1516" y1="-13.1671" x2="163.308" y2="132.559" gradientUnits="userSpaceOnUse">
<stop stop-color="#2E85FE"/>
<stop offset="0.940047" stop-color="#AF2EE6"/>
</linearGradient>
</defs>
</svg>
