<svg width="87" height="45" viewBox="0 0 87 45" fill="none" xmlns="http://www.w3.org/2000/svg">
<path d="M30.2771 22.1312C30.8355 21.7987 31.4363 21.4496 32.0847 21.0883L35.1376 29.0983C35.1376 29.0983 48.6257 24.1397 48.8426 24.0603C50.5133 21.0526 50.9307 17.3843 50.0303 14.0677C50.6302 13.9355 51.2352 13.8133 51.8454 13.701C51.1994 11.9261 50.2823 10.262 49.1267 8.76799C48.5207 7.98573 47.845 7.24797 47.0457 6.66396C44.5802 4.86085 41.2043 4.73928 38.2638 5.56486C36.7603 5.97593 35.3376 6.63909 34.056 7.52611C32.8748 8.35627 31.8358 9.40643 31.1063 10.6522C30.1339 12.3131 29.7437 14.2644 29.698 16.189C29.6523 18.1136 29.9352 20.0286 30.2427 22.0388C30.2538 22.0696 30.2659 22.1003 30.2771 22.1312Z" fill="#262626"/>
<path d="M23.0262 33.8678C23.102 33.3603 22.7986 32.8548 22.3832 32.5541C21.9678 32.2535 21.4573 32.1199 20.9554 32.0128C15.9257 30.938 10.4958 31.9572 6.15457 34.715C5.86319 34.9002 5.56986 35.0993 5.37622 35.3846C5.18259 35.67 5.1098 36.0629 5.28451 36.3602C5.60276 36.9041 6.42184 36.7864 6.98023 37.0784C5.08117 37.3589 3.31653 38.2236 1.93119 39.5525C1.47507 39.992 1.04226 40.5328 1.02074 41.1662C0.999168 41.7911 1.40036 42.3734 1.92178 42.7193C2.4432 43.0652 3.07027 43.2093 3.68858 43.3047C5.87056 43.6426 8.10319 43.4492 10.2824 43.0913C14.7256 42.3617 19.2185 40.8525 22.4333 37.6993C22.9616 37.1817 23.458 36.6112 23.7521 35.9324C24.0463 35.2536 24.1154 34.4486 23.0262 33.8678Z" fill="#FFBB4D"/>
<path d="M18.7671 34.6837C17.6693 34.3521 16.4905 34.4113 15.4314 34.8511C14.8117 35.1109 14.1876 35.5968 14.1501 36.2678C14.1375 36.3984 14.1653 36.5297 14.2297 36.6439C14.2936 36.7351 14.377 36.8109 14.4739 36.8659C15.2852 37.3802 16.325 37.337 17.2722 37.1778C17.8923 37.0821 18.5002 36.919 19.085 36.6917C19.4862 36.5294 19.9314 36.2226 19.891 35.7917C19.8436 35.2957 19.3283 34.8549 18.7671 34.6837Z" fill="#FE9249"/>
<path d="M36.3462 13.5058C35.4667 13.8233 34.6129 14.2079 33.7922 14.656C33.5848 14.7693 33.3709 14.8945 33.2464 15.0955C33.1277 15.2874 33.1066 15.5224 33.0939 15.7477C32.9623 18.0561 33.3773 20.3552 33.6912 22.646C33.7762 23.2663 33.8573 23.8991 34.1227 24.4658C34.3881 25.0326 34.8755 25.534 35.491 25.6463C36.1095 25.7592 36.75 25.4567 37.1774 24.9959C37.6047 24.5351 37.8525 23.9368 38.0416 23.3374C38.5807 21.6271 38.7141 19.8025 38.5421 18.0183C38.432 16.8774 38.1889 15.7225 37.5874 14.7479C37.2876 14.2338 36.86 13.806 36.3462 13.5058Z" fill="#A79BB2"/>
<path d="M33.7922 14.6561C33.5848 14.7693 33.3709 14.8946 33.2464 15.0956C33.1276 15.2875 33.1066 15.5225 33.0939 15.7478C32.9623 18.0561 33.3773 20.3553 33.6912 22.646C33.7762 23.2664 33.8573 23.8991 34.1227 24.4659C34.3881 25.0326 34.8755 25.534 35.491 25.6464C35.5549 25.6572 35.6194 25.6637 35.6841 25.6658C35.6794 25.6351 35.6746 25.6045 35.6693 25.574C35.4791 24.5055 35.1682 23.4625 34.9188 22.4064C34.3042 19.8006 34.06 17.1211 34.1935 14.4471C34.0591 14.5159 33.9246 14.5837 33.7922 14.6561Z" fill="#C4BCCC"/>
<path d="M36.489 13.6004C34.6989 16.6506 34.1751 20.2807 35.0299 23.7125C35.2034 24.3952 35.4468 25.0805 35.831 25.6639C36.3489 25.6219 36.831 25.383 37.1781 24.9963C37.606 24.5355 37.8532 23.9371 38.0424 23.3378C38.5814 21.6275 38.7148 19.8029 38.5429 18.0186C38.4327 16.8777 38.1896 15.7229 37.5881 14.7482C37.3135 14.2872 36.9377 13.8947 36.489 13.6004Z" fill="#756784"/>
<path d="M47.2154 25.2158C46.6896 23.1675 45.9418 21.1828 44.9851 19.297C44.1643 17.6798 43.074 16.0386 41.3782 15.3966C40.5744 15.0945 39.6979 15.0434 38.8645 15.25C38.2874 15.3848 37.7553 15.6676 37.3209 16.0707C36.762 16.6082 36.4435 17.3581 36.3116 18.1225C36.1797 18.8869 36.2205 19.669 36.293 20.4408C36.589 23.5855 37.3972 26.6606 38.6855 29.5446C38.7577 29.5357 38.8238 29.4994 38.87 29.4432L47.2154 25.2158Z" fill="#E1E1E1"/>
<path d="M34.5488 15.0689C34.5082 15.0743 34.4671 15.0642 34.4337 15.0405C34.4003 15.0169 34.377 14.9815 34.3686 14.9414C34.0902 13.6107 33.9153 12.2603 33.8457 10.9025C33.8444 10.8598 33.8596 10.8182 33.8883 10.7865C33.917 10.7548 33.9568 10.7353 33.9994 10.7323C34.0207 10.7312 34.042 10.7343 34.0621 10.7415C34.0821 10.7486 34.1006 10.7596 34.1164 10.7739C34.1322 10.7882 34.145 10.8054 34.1542 10.8247C34.1633 10.8439 34.1685 10.8648 34.1696 10.8861C34.2387 12.2269 34.4115 13.5605 34.6865 14.8747C34.6953 14.9168 34.687 14.9608 34.6635 14.9968C34.6399 15.0329 34.603 15.0581 34.5609 15.067C34.557 15.0678 34.5528 15.0684 34.5488 15.0689Z" fill="#A79BB2"/>
<path opacity="0.7" d="M43.7637 6.16107C43.0996 5.9144 42.4299 5.66653 41.7301 5.55472C41.3398 5.49252 40.9324 5.47404 40.5556 5.5953C40.4056 5.64336 40.2456 5.73427 40.2144 5.88763C40.2082 5.94831 40.2152 6.00963 40.2352 6.06729C40.2551 6.12495 40.2874 6.17754 40.3298 6.2214C40.5573 6.49708 41.1066 6.59878 41.6057 6.72493C44.7593 7.52225 46.1505 8.88204 46.7851 8.82851C47.0862 8.80318 47.4372 8.664 47.4838 8.36562C47.5052 8.23404 47.3506 7.87432 47.2448 7.79348C46.485 7.21246 44.6853 6.503 43.7637 6.16107Z" fill="white"/>
<path opacity="0.7" d="M48.8334 9.323C48.7391 9.22593 48.6332 9.14095 48.518 9.06998C48.4012 8.99909 48.2619 8.97478 48.1279 9.0019C48.0619 9.01712 48.0021 9.05225 47.9567 9.10256C47.9112 9.15286 47.8823 9.2159 47.8739 9.28316C47.8755 9.38431 47.912 9.48179 47.9774 9.55903C48.1504 9.79075 48.4066 9.94618 48.6921 9.99249C48.7752 10.0131 48.8631 10.0013 48.9379 9.95963C48.9738 9.93131 49.0016 9.89405 49.0186 9.85158C49.0356 9.8091 49.0411 9.76292 49.0346 9.71764C49.0319 9.64116 49.0125 9.56621 48.9777 9.49804C48.9429 9.42986 48.8937 9.37012 48.8334 9.323Z" fill="white"/>
<path d="M45.2758 19.889C43.6089 19.0641 41.7645 18.5975 40.4558 18.7951C40.5276 20.031 41.3185 21.1157 42.2374 21.9453C42.8704 22.5167 43.5864 23.009 44.3859 23.3049C45.1291 23.5911 45.9378 23.6626 46.7197 23.5112C46.3201 22.2728 45.8377 21.0627 45.2758 19.889Z" fill="#C9C6CE"/>
<path d="M40.0886 17.4086C40.862 17.1113 41.6066 16.7438 42.3129 16.3106C42.4156 16.2474 42.5189 16.1817 42.6189 16.1114C42.2448 15.8102 41.8262 15.5689 41.3781 15.3961C40.5744 15.094 39.6979 15.0429 38.8645 15.2496C38.2991 15.3702 37.7773 15.6426 37.3552 16.0375C36.933 16.4324 36.6264 16.9348 36.4684 17.4909C36.9015 17.7327 37.3875 17.8641 37.8834 17.8736C38.6394 17.8935 39.3826 17.6792 40.0886 17.4086Z" fill="#C9C6CE"/>
<path d="M26.5478 26.022C25.5289 26.7215 24.5198 27.435 23.5207 28.1624L26.735 38.5286L30.4365 38.4617L26.5478 26.022Z" fill="#FC735E"/>
<path d="M26.5481 26.022C26.4511 26.0884 26.3557 26.1568 26.2587 26.2235C25.6941 29.5834 26.1914 33.0358 27.6814 36.0997C28.1402 37.0344 28.7616 37.9866 29.7393 38.345C29.8589 38.3988 29.992 38.4152 30.1211 38.3921C30.2209 38.365 30.306 38.2995 30.3578 38.21L26.5481 26.022Z" fill="#DD5547"/>
<path d="M24.029 29.8326C23.9906 29.8378 23.9515 29.829 23.919 29.808C23.8865 29.7869 23.8626 29.7548 23.8516 29.7176C23.8406 29.6804 23.8434 29.6406 23.8593 29.6052C23.8752 29.5698 23.9032 29.5413 23.9383 29.5249L27.0642 28.0509C27.103 28.0332 27.1473 28.0315 27.1873 28.0462C27.2274 28.0609 27.2601 28.0908 27.2783 28.1294C27.2965 28.168 27.2988 28.2122 27.2846 28.2524C27.2704 28.2927 27.241 28.3258 27.2026 28.3445L24.0764 29.8185C24.0614 29.8255 24.0454 29.8303 24.029 29.8326Z" fill="#93312C"/>
<path d="M24.4163 31.3396C24.3761 31.345 24.3353 31.3351 24.302 31.3119C24.2687 31.2887 24.2453 31.2538 24.2364 31.2142C24.2275 31.1746 24.2338 31.1331 24.254 31.0979C24.2742 31.0627 24.3068 31.0363 24.3455 31.024C25.494 30.653 26.6209 30.2181 27.7208 29.7211C27.76 29.7034 27.8046 29.702 27.8449 29.7172C27.8851 29.7324 27.9177 29.7629 27.9354 29.8021C27.9531 29.8413 27.9545 29.886 27.9393 29.9262C27.9241 29.9665 27.8935 29.999 27.8543 30.0167C26.7434 30.519 25.6052 30.9585 24.445 31.3331C24.4357 31.3361 24.4261 31.3383 24.4163 31.3396Z" fill="#93312C"/>
<path d="M24.9125 32.8481C24.8728 32.8535 24.8325 32.844 24.7994 32.8214C24.7663 32.7988 24.7427 32.7648 24.7332 32.7259C24.7237 32.687 24.7289 32.6459 24.7478 32.6106C24.7668 32.5753 24.7981 32.5482 24.8358 32.5346C25.966 32.1242 27.1211 31.7356 28.2685 31.3797C28.289 31.373 28.3106 31.3704 28.332 31.3722C28.3535 31.3739 28.3744 31.3799 28.3935 31.3898C28.4127 31.3996 28.4296 31.4132 28.4435 31.4297C28.4573 31.4462 28.4677 31.4653 28.4741 31.4859C28.4805 31.5064 28.4828 31.5281 28.4807 31.5495C28.4787 31.5709 28.4724 31.5918 28.4622 31.6107C28.4521 31.6297 28.4383 31.6465 28.4216 31.6601C28.4049 31.6737 28.3856 31.6838 28.365 31.6899C27.2226 32.044 26.072 32.4311 24.9462 32.8393C24.9353 32.8435 24.924 32.8464 24.9125 32.8481Z" fill="#93312C"/>
<path d="M48.8488 23.898C48.0272 22.333 47.677 20.5678 47.4032 18.822C47.079 16.7545 46.8641 14.5524 47.7236 12.6444C47.9308 12.1833 48.2062 11.7406 48.6045 11.4289C49.0027 11.1173 49.5378 10.9531 50.025 11.0877C50.3914 11.1891 50.696 11.4439 50.9587 11.7197C51.5081 12.2953 51.9317 12.9902 52.3475 13.6475C52.4237 17.2645 51.2051 20.8949 48.8488 23.898Z" fill="#D9CAEF"/>
<path d="M25.4501 34.3701C25.4086 34.3754 25.3667 34.3645 25.3331 34.3398C25.2995 34.315 25.2767 34.2782 25.2695 34.237C25.2624 34.1958 25.2713 34.1535 25.2946 34.1188C25.3179 34.0841 25.3536 34.0597 25.3944 34.0507C26.487 33.8119 27.5858 33.5286 28.6603 33.2081C28.7013 33.1968 28.745 33.202 28.7822 33.2227C28.8194 33.2433 28.847 33.2776 28.8591 33.3183C28.8713 33.3591 28.867 33.4029 28.8471 33.4405C28.8273 33.4781 28.7936 33.5064 28.7531 33.5194C27.6709 33.842 26.564 34.1275 25.4633 34.3677C25.4591 34.3685 25.4545 34.3695 25.4501 34.3701Z" fill="#93312C"/>
<path d="M25.9321 35.8256L25.8752 35.8332C25.8538 35.8366 25.832 35.8357 25.8109 35.8305C25.7899 35.8253 25.7702 35.816 25.7528 35.803C25.7354 35.7901 25.7208 35.7738 25.7099 35.7552C25.6989 35.7365 25.6918 35.7159 25.6889 35.6944C25.686 35.673 25.6875 35.6511 25.6932 35.6303C25.6989 35.6094 25.7087 35.5898 25.722 35.5728C25.7354 35.5558 25.752 35.5416 25.7709 35.5311C25.7898 35.5205 25.8107 35.5139 25.8322 35.5116C27.0785 35.344 28.3479 35.146 29.5857 34.9185C29.6068 34.913 29.6289 34.9122 29.6503 34.916C29.6718 34.9198 29.6922 34.9282 29.7101 34.9407C29.728 34.9531 29.743 34.9692 29.7541 34.988C29.7652 35.0067 29.7722 35.0276 29.7745 35.0493C29.7784 35.0702 29.7781 35.0918 29.7737 35.1126C29.7692 35.1334 29.7607 35.1532 29.7487 35.1707C29.7366 35.1883 29.7211 35.2032 29.7032 35.2148C29.6853 35.2263 29.6653 35.2342 29.6443 35.238C28.4195 35.4625 27.1707 35.66 25.9321 35.8256Z" fill="#93312C"/>
<path d="M29.9119 37.0305C28.7141 37.1879 27.3512 37.3361 26.3541 37.4173C26.3329 37.419 26.3115 37.4166 26.2912 37.4101C26.2709 37.4036 26.2521 37.3932 26.2358 37.3794C26.2196 37.3656 26.2062 37.3487 26.1965 37.3297C26.1868 37.3108 26.181 37.2901 26.1793 37.2688C26.176 37.2473 26.1773 37.2254 26.1832 37.2044C26.1891 37.1835 26.1994 37.1641 26.2135 37.1475C26.2275 37.1309 26.245 37.1175 26.2647 37.1083C26.2844 37.099 26.3058 37.0942 26.3276 37.0939C27.3198 37.0127 28.677 36.8652 29.8696 36.7082C29.9123 36.7025 29.9555 36.714 29.9897 36.7401C30.0239 36.7662 30.0463 36.8049 30.052 36.8475C30.0577 36.8902 30.0462 36.9334 30.0201 36.9676C29.994 37.0018 29.9553 37.0242 29.9126 37.0299L29.9119 37.0305Z" fill="#93312C"/>
<path d="M49.578 17.3608C49.4993 18.0051 49.2053 18.6071 48.8326 19.1376C48.508 19.6012 48.1188 20.0161 47.677 20.3696C47.2564 20.7076 46.7866 20.9793 46.2839 21.1751C45.2459 21.583 44.095 21.6004 43.0452 21.2238C42.0123 20.8354 41.1388 20.0053 40.7612 18.9685C40.6456 18.6737 40.5922 18.3581 40.6042 18.0417C40.6062 17.8999 40.6467 17.7614 40.7213 17.6408C40.8708 17.4248 41.1613 17.3587 41.4245 17.3576C42.2275 17.3537 42.9582 17.7796 43.7103 18.0584C44.0744 18.193 44.4714 18.296 44.8496 18.2074C45.1854 18.1294 45.4682 17.9111 45.7346 17.6932C46.2003 17.3111 46.6544 16.9149 47.1416 16.5621C47.2339 16.4942 47.3275 16.4281 47.4233 16.3646C48.0188 15.968 48.6809 15.6474 49.3902 15.5477C49.4981 16.0267 49.6558 16.7175 49.578 17.3608Z" fill="#E1E1E1"/>
<path d="M49.5787 17.3608C49.5 18.0051 49.206 18.6071 48.8333 19.1376C48.5087 19.6012 48.1195 20.0161 47.6777 20.3697C47.572 19.8562 47.4842 19.3385 47.4034 18.8217C47.2867 18.0797 47.185 17.319 47.1423 16.5622C47.2347 16.4942 47.3282 16.4281 47.4241 16.3646C48.0195 15.9681 48.6817 15.6474 49.3909 15.5478C49.4988 16.0267 49.6565 16.7175 49.5787 17.3608Z" fill="#CEC8D6"/>
<path d="M48.8562 16.3363C48.5047 15.8124 48.6372 15.1154 48.7825 14.5016C48.792 14.4629 48.8055 14.4189 48.8427 14.4043C48.885 14.3878 48.9296 14.4206 48.9618 14.4527C49.1056 14.5976 49.2094 14.7774 49.263 14.9745C49.1241 14.3603 49.8344 13.2982 50.0718 13.4385C50.3196 13.5847 50.1411 14.0097 50.1363 14.297C50.1698 14.0266 50.3083 13.7802 50.5219 13.6109C50.5912 13.5568 50.709 13.5202 50.7531 13.5963C50.7676 13.629 50.7711 13.6654 50.763 13.7002C50.7374 13.9032 50.6963 14.104 50.64 14.3007C50.6986 14.0631 50.8419 13.8552 51.043 13.7157C51.0666 13.694 51.0958 13.679 51.1273 13.6726C51.1588 13.6661 51.1914 13.6684 51.2218 13.6791C51.2865 13.7152 51.2876 13.8068 51.2779 13.8801C51.1736 14.7004 50.9086 15.4921 50.498 16.2098C50.3501 16.4686 50.1729 16.7264 49.9095 16.8659C49.6462 17.0053 49.2871 16.9776 48.8562 16.3363Z" fill="#A79BB2"/>
<path d="M51.8945 19.1466C53.4383 18.9402 54.5225 17.5214 54.3161 15.9775C54.1097 14.4337 52.6909 13.3495 51.1471 13.5559C49.6032 13.7623 48.519 15.1811 48.7254 16.725C48.9318 18.2688 50.3506 19.353 51.8945 19.1466Z" fill="#4B2F66"/>
<path d="M78.46 18.4133C76.9791 11.0026 57.4435 13.0203 57.4435 13.0203C54.9485 13.1717 52.4695 13.5221 50.0302 14.068C50.9306 17.3844 50.5133 21.0529 48.8426 24.0606C48.8461 24.0592 48.8468 24.0591 48.8426 24.0606C48.6257 24.14 35.1376 29.0986 35.1376 29.0986L32.0851 21.0881C28.2066 23.2535 25.8671 25.0027 25.8671 25.0027L30.0712 39.1492C49.0137 39.2877 61.1549 33.1643 61.1549 33.1643C80.2131 24.6042 78.46 18.4133 78.46 18.4133Z" fill="#2E85FE"/>
<path d="M77.0426 18.7993C77.0268 18.8013 77.0107 18.8011 76.9949 18.7987L76.6684 18.7448C76.633 18.7391 76.6004 18.7217 76.5759 18.6955C76.5514 18.6693 76.5363 18.6357 76.5329 18.6C76.5295 18.5642 76.5381 18.5284 76.5573 18.4981C76.5765 18.4677 76.6052 18.4446 76.6389 18.4323L82.476 16.2877C82.5162 16.2737 82.5603 16.2761 82.5988 16.2943C82.6373 16.3126 82.6671 16.3452 82.6818 16.3851C82.6964 16.4251 82.6949 16.4692 82.6773 16.5081C82.6598 16.5469 82.6277 16.5772 82.588 16.5926L77.1736 18.5818C77.1831 18.6082 77.1859 18.6365 77.1814 18.6642C77.1759 18.6987 77.1593 18.7304 77.1343 18.7547C77.1093 18.779 77.0772 18.7947 77.0426 18.7993Z" fill="#FC735E"/>
<path d="M83.1648 15.2892C82.7987 15.3797 82.42 15.476 82.1226 15.7084C81.8251 15.9407 81.6308 16.3501 81.7624 16.7039C81.8182 16.8312 81.9034 16.9434 82.0109 17.0315C82.1185 17.1195 82.2454 17.1808 82.3812 17.2103C82.6535 17.2663 82.9345 17.2652 83.2064 17.2073C83.4981 17.159 83.7977 17.0828 84.0223 16.8916C84.1736 16.7576 84.2797 16.5801 84.3261 16.3835C84.3725 16.1868 84.357 15.9806 84.2817 15.7931C84.1248 15.4234 83.7067 15.1552 83.1648 15.2892Z" fill="#FFBB4D"/>
<path d="M28.843 35.0187L30.0705 39.1496C49.0129 39.288 61.1542 33.1647 61.1542 33.1647C80.2128 24.6045 78.4598 18.4136 78.4598 18.4136C78.3769 18.0007 78.2328 17.6026 78.0322 17.2323C75.769 18.2885 73.5942 19.525 71.4025 20.7248C58.1824 27.9608 43.7645 33.8758 28.843 35.0187Z" fill="#006BFF"/>
<path d="M68.1617 13.0091C67.7256 13.7652 67.4214 14.5901 67.2621 15.4483C66.9628 17.0332 67.0943 18.6702 67.3699 20.2599C67.714 22.2457 68.3258 24.2742 69.7074 25.7419C70.3245 26.3917 71.0707 26.9052 71.8982 27.2492C79.4464 21.8963 78.4603 18.4132 78.4603 18.4132C77.757 14.8942 72.9822 13.5018 68.1617 13.0091Z" fill="#FC735E"/>
<path d="M68.0149 15.61C67.9979 15.4827 68.019 15.3532 68.0755 15.2379C68.1321 15.1226 68.2216 15.0267 68.3327 14.9623C68.4438 14.8978 68.5715 14.8678 68.6996 14.8759C68.8278 14.8841 68.9507 14.93 69.0527 15.008C69.1547 15.086 69.2314 15.1925 69.2729 15.314C69.3144 15.4355 69.319 15.5666 69.286 15.6907C69.253 15.8149 69.1839 15.9264 69.0876 16.0113C68.9912 16.0961 68.8718 16.1505 68.7445 16.1675C68.5738 16.1903 68.4011 16.1444 68.2642 16.0398C68.1274 15.9353 68.0377 15.7807 68.0149 15.61Z" fill="#FFBB4D"/>
<path d="M67.9997 18.5601C67.9827 18.4328 68.0039 18.3034 68.0605 18.1881C68.117 18.0728 68.2066 17.9769 68.3177 17.9125C68.4288 17.848 68.5565 17.818 68.6847 17.8262C68.8128 17.8344 68.9357 17.8804 69.0377 17.9584C69.1397 18.0364 69.2163 18.1429 69.2578 18.2645C69.2993 18.386 69.3038 18.5171 69.2708 18.6412C69.2377 18.7653 69.1686 18.8769 69.0722 18.9617C68.9758 19.0465 68.8564 19.1009 68.7291 19.1178C68.5584 19.1405 68.3857 19.0945 68.249 18.9899C68.1122 18.8854 68.0226 18.7308 67.9997 18.5601Z" fill="#FFBB4D"/>
<path d="M68.4083 21.6165C68.3913 21.4892 68.4124 21.3597 68.4689 21.2444C68.5255 21.1291 68.615 21.0332 68.7261 20.9687C68.8372 20.9043 68.9649 20.8742 69.0931 20.8824C69.2213 20.8906 69.3442 20.9365 69.4462 21.0145C69.5483 21.0925 69.6249 21.199 69.6664 21.3206C69.7079 21.4421 69.7124 21.5733 69.6794 21.6974C69.6463 21.8215 69.5772 21.933 69.4808 22.0179C69.3844 22.1027 69.265 22.1571 69.1376 22.174C68.967 22.1968 68.7943 22.1508 68.6576 22.0463C68.5208 21.9417 68.4312 21.7872 68.4083 21.6165Z" fill="#FFBB4D"/>
<path d="M69.6911 24.479C69.6741 24.3517 69.6952 24.2222 69.7518 24.1069C69.8084 23.9916 69.8979 23.8957 70.009 23.8313C70.1201 23.7669 70.2478 23.7368 70.376 23.745C70.5042 23.7532 70.6271 23.7992 70.7291 23.8772C70.8311 23.9552 70.9077 24.0617 70.9492 24.1832C70.9907 24.3048 70.9952 24.4359 70.9622 24.56C70.9292 24.6841 70.8601 24.7957 70.7636 24.8805C70.6672 24.9653 70.5478 25.0197 70.4205 25.0366C70.2498 25.0593 70.0772 25.0134 69.9404 24.9088C69.8036 24.8043 69.714 24.6497 69.6911 24.479Z" fill="#FFBB4D"/>
<path d="M38.7653 29.8918C37.2817 31.0028 35.777 32.1337 34.6581 33.6115C34.2532 34.1459 33.896 34.7393 33.7765 35.3994C33.657 36.0594 33.813 36.7987 34.3055 37.2545C34.8359 37.746 35.6303 37.8175 36.3503 37.7501C38.0586 37.5899 39.645 36.8057 41.1071 35.9077C43.6409 34.3505 45.9264 32.4216 47.8873 30.1856C48.5118 29.4733 49.1096 28.7179 49.4703 27.8417C49.6324 27.4495 49.7278 26.9541 49.4458 26.6372C49.1565 26.3115 48.6429 26.3594 48.2171 26.4491C44.9327 27.143 41.4502 27.8826 38.7653 29.8918Z" fill="#FC735E"/>
<path d="M48.2167 26.4488C48.1983 26.4526 48.1799 26.4567 48.1615 26.4605C48.0609 26.8176 47.906 27.1572 47.7022 27.4673C44.9708 31.9226 40.619 35.1458 35.5609 36.4598C35.2532 36.5279 34.9508 36.6182 34.6561 36.7299C34.4715 36.8072 34.285 36.9137 34.1905 37.0904C34.1856 37.0997 34.1844 37.1092 34.1803 37.1187C34.2194 37.1662 34.2613 37.2114 34.3057 37.2542C34.8361 37.7456 35.6305 37.8172 36.3505 37.7497C38.0588 37.5896 39.6452 36.8053 41.1073 35.9073C43.6411 34.3501 45.9266 32.4212 47.8875 30.1852C48.512 29.4729 49.1098 28.7175 49.4705 27.8413C49.6326 27.4491 49.728 26.9537 49.446 26.6368C49.1561 26.3112 48.6424 26.3591 48.2167 26.4488Z" fill="#DD5547"/>
<path d="M36.537 14.0947C36.4164 14.6472 36.2954 15.211 36.3468 15.7744C36.3551 15.9664 36.411 16.1532 36.5092 16.3183C36.6747 16.5669 36.9743 16.6908 37.2667 16.7484C37.8887 16.8716 38.5314 16.7566 39.1468 16.6051C39.8226 16.4388 40.4865 16.2274 41.1341 15.9723C41.5728 15.8139 41.9894 15.6 42.3737 15.3358C42.5708 15.1977 42.7428 15.0271 42.8824 14.8311C43.0247 14.6292 43.103 14.3892 43.107 14.1423C43.0966 13.8703 43.0009 13.6084 42.8334 13.3939C42.6524 13.1505 42.4123 12.9573 42.1357 12.8327C41.7393 12.6551 41.2918 12.6298 40.8577 12.6508C40.2011 12.6958 39.5502 12.8035 38.9141 12.9723C38.1283 13.1643 37.3377 13.4005 36.537 14.0947Z" fill="#E1E1E1"/>
<path d="M42.7203 13.261C42.5566 13.0794 42.3572 12.9334 42.1345 12.8323C41.7381 12.6546 41.2906 12.6293 40.8565 12.6503C40.1999 12.6954 39.549 12.8031 38.9129 12.9719C38.1272 13.1647 37.3367 13.4005 36.5358 14.0947C36.4852 14.3273 36.4369 14.5625 36.3991 14.7982C37.2942 15.2333 38.2865 15.4298 39.2798 15.3687C40.5024 15.2774 41.7033 14.716 42.48 13.7672C42.589 13.648 42.6689 13.5053 42.7137 13.3502C42.7183 13.3207 42.7205 13.2909 42.7203 13.261Z" fill="#C9C6CE"/>
<path d="M36.5094 8.07767C37.5282 7.23867 38.8083 6.78239 40.1281 6.78785C40.6013 6.79139 41.1043 6.86885 41.4594 7.1815C41.6279 7.34296 41.7697 7.53024 41.8794 7.73628C42.3345 8.50752 42.7097 9.32321 42.9991 10.1707C43.152 10.6183 43.2821 11.0885 43.2346 11.5591C43.1767 12.134 42.8579 12.6534 42.4742 13.0864C41.9903 13.6194 41.406 14.0517 40.7549 14.3586C40.1037 14.6655 39.3983 14.841 38.6793 14.8749C38.1084 14.9025 37.5153 14.8361 37.0184 14.5546C36.5776 14.3055 36.2422 13.9047 35.9635 13.4817C35.5198 12.8073 35.1907 12.0308 35.1819 11.2231C35.1913 10.7068 35.2859 10.1955 35.4617 9.70987C35.6536 9.12703 35.9186 8.56796 36.5094 8.07767Z" fill="#E1E1E1"/>
<path d="M34.7207 11.1356C35.2489 10.896 35.8075 10.7302 36.3808 10.6427C36.45 10.626 36.5225 10.629 36.5901 10.6513C36.6617 10.6923 36.7177 10.7557 36.7496 10.8318C36.964 11.2338 37.1025 11.6718 37.1582 12.124C37.1718 12.1958 37.1683 12.2697 37.148 12.3399C37.0984 12.4404 37.0146 12.5199 36.9116 12.564C36.4597 12.8132 35.9602 12.9609 35.4654 13.1066C35.3323 13.1616 35.185 13.1726 35.0452 13.1379C34.889 13.0808 34.799 12.9191 34.7384 12.7637C34.5335 12.2415 34.5272 11.6622 34.7207 11.1356Z" fill="#675E70"/>
<path d="M43.2289 11.1262C43.1888 10.8005 43.1119 10.4803 42.9998 10.1719C42.7103 9.32447 42.3351 8.50878 41.88 7.73754C41.7862 7.56829 41.6734 7.41023 41.544 7.26642C40.4958 7.53786 39.4974 7.97415 38.5861 8.55896C38.3437 8.71521 38.102 8.88765 37.9463 9.13041C37.801 9.37846 37.723 9.66009 37.7198 9.94752C37.6839 10.6672 37.9034 11.3798 38.2219 12.0257C38.2765 12.1616 38.3654 12.2811 38.4799 12.3724C38.6311 12.4754 38.8275 12.4769 39.0104 12.4697C40.1901 12.4213 41.349 12.1428 42.4219 11.6499C42.7201 11.525 42.9934 11.3476 43.2289 11.1262Z" fill="#2E0C49"/>
<path d="M42.2206 11.7357C42.4709 11.0395 42.6599 10.3228 42.7855 9.59369C42.5328 8.95178 42.2299 8.33082 41.8795 7.73656C41.7857 7.56731 41.673 7.40926 41.5435 7.26545C41.4471 7.29062 41.3533 7.32422 41.2577 7.35241C40.9301 8.96001 40.6816 10.5888 40.7852 12.2185C41.2764 12.0984 41.7566 11.9369 42.2206 11.7357Z" fill="#53216D"/>
<path d="M38.6189 12.4357C38.7465 12.4683 38.8786 12.4796 39.0099 12.4691C39.2752 12.458 39.5398 12.4338 39.8034 12.3995C40.1706 11.2132 40.3963 9.98749 40.4756 8.7481C40.4987 8.38364 40.506 8.00167 40.3512 7.67123C40.3499 7.66887 40.3483 7.66645 40.3473 7.66405C39.9701 7.81087 39.602 7.97991 39.2448 8.17028C38.8985 9.57377 38.5833 11.0015 38.6189 12.4357Z" fill="#53216D"/>
<path opacity="0.3" d="M39.1641 7.80158C39.2176 7.66735 39.2412 7.52307 39.2333 7.37878C39.2114 7.19734 39.1274 7.02908 38.9954 6.90264C38.0827 7.08379 37.2289 7.48765 36.51 8.0783C36.4112 8.16106 36.3176 8.24984 36.2298 8.34414C36.3879 8.50617 36.5704 8.64247 36.7706 8.74808C36.9877 8.85767 37.2255 8.92005 37.4684 8.93111C37.7113 8.94217 37.9538 8.90165 38.1799 8.81224C38.406 8.72282 38.6106 8.58653 38.7803 8.41233C38.9499 8.23814 39.0807 8.02999 39.1641 7.80158Z" fill="white"/>
<path d="M34.7898 11.8853C34.8364 11.4199 34.497 11.0048 34.0316 10.9582C33.5662 10.9116 33.1511 11.2511 33.1045 11.7165C33.0579 12.1819 33.3974 12.5969 33.8628 12.6435C34.3282 12.6901 34.7432 12.3506 34.7898 11.8853Z" fill="#49B3F7"/>
</svg>
